<mxfile host="65bd71144e" modified="2021-01-27T21:18:51.439Z" agent="5.0 (Windows NT 10.0; Win64; x64) AppleWebKit/537.36 (KHTML, like Gecko) Code/1.52.1 Chrome/83.0.4103.122 Electron/9.3.5 Safari/537.36" etag="PzAkq3uBQemq57Q7uhhL" version="13.10.0" type="embed" pages="5">
    <diagram id="R2lEEEUBdFMjLlhIrx00" name="entity relationship diagram">
        <mxGraphModel dx="939" dy="567" grid="1" gridSize="10" guides="1" tooltips="1" connect="1" arrows="1" fold="1" page="1" pageScale="1" pageWidth="850" pageHeight="1100" math="0" shadow="0" extFonts="Permanent Marker^https://fonts.googleapis.com/css?family=Permanent+Marker">
            <root>
                <mxCell id="0"/>
                <mxCell id="1" parent="0"/>
                <mxCell id="zch7z-70ZeMyKY-zdzht-198" value="" style="rounded=0;whiteSpace=wrap;html=1;" parent="1" vertex="1">
                    <mxGeometry x="535" y="20" width="275" height="260" as="geometry"/>
                </mxCell>
                <mxCell id="zch7z-70ZeMyKY-zdzht-17" value="&lt;b&gt;Option 1&lt;/b&gt;" style="text;html=1;strokeColor=none;fillColor=none;align=center;verticalAlign=middle;whiteSpace=wrap;rounded=0;" parent="1" vertex="1">
                    <mxGeometry x="30" y="20" width="70" height="20" as="geometry"/>
                </mxCell>
                <mxCell id="zch7z-70ZeMyKY-zdzht-31" value="consents_user" style="shape=table;startSize=30;container=1;collapsible=1;childLayout=tableLayout;fixedRows=1;rowLines=0;fontStyle=1;align=center;resizeLast=1;" parent="1" vertex="1">
                    <mxGeometry x="245" y="40" width="180" height="160" as="geometry"/>
                </mxCell>
                <mxCell id="zch7z-70ZeMyKY-zdzht-32" value="" style="shape=partialRectangle;collapsible=0;dropTarget=0;pointerEvents=0;fillColor=none;top=0;left=0;bottom=1;right=0;points=[[0,0.5],[1,0.5]];portConstraint=eastwest;" parent="zch7z-70ZeMyKY-zdzht-31" vertex="1">
                    <mxGeometry y="30" width="180" height="30" as="geometry"/>
                </mxCell>
                <mxCell id="zch7z-70ZeMyKY-zdzht-33" value="PK" style="shape=partialRectangle;connectable=0;fillColor=none;top=0;left=0;bottom=0;right=0;fontStyle=1;overflow=hidden;" parent="zch7z-70ZeMyKY-zdzht-32" vertex="1">
                    <mxGeometry width="30" height="30" as="geometry"/>
                </mxCell>
                <mxCell id="zch7z-70ZeMyKY-zdzht-34" value="UniqueID" style="shape=partialRectangle;connectable=0;fillColor=none;top=0;left=0;bottom=0;right=0;align=left;spacingLeft=6;fontStyle=5;overflow=hidden;" parent="zch7z-70ZeMyKY-zdzht-32" vertex="1">
                    <mxGeometry x="30" width="150" height="30" as="geometry"/>
                </mxCell>
                <mxCell id="zch7z-70ZeMyKY-zdzht-35" value="" style="shape=partialRectangle;collapsible=0;dropTarget=0;pointerEvents=0;fillColor=none;top=0;left=0;bottom=0;right=0;points=[[0,0.5],[1,0.5]];portConstraint=eastwest;" parent="zch7z-70ZeMyKY-zdzht-31" vertex="1">
                    <mxGeometry y="60" width="180" height="30" as="geometry"/>
                </mxCell>
                <mxCell id="zch7z-70ZeMyKY-zdzht-36" value="" style="shape=partialRectangle;connectable=0;fillColor=none;top=0;left=0;bottom=0;right=0;editable=1;overflow=hidden;" parent="zch7z-70ZeMyKY-zdzht-35" vertex="1">
                    <mxGeometry width="30" height="30" as="geometry"/>
                </mxCell>
                <mxCell id="zch7z-70ZeMyKY-zdzht-37" value="Row 1" style="shape=partialRectangle;connectable=0;fillColor=none;top=0;left=0;bottom=0;right=0;align=left;spacingLeft=6;overflow=hidden;" parent="zch7z-70ZeMyKY-zdzht-35" vertex="1">
                    <mxGeometry x="30" width="150" height="30" as="geometry"/>
                </mxCell>
                <mxCell id="zch7z-70ZeMyKY-zdzht-38" value="" style="shape=partialRectangle;collapsible=0;dropTarget=0;pointerEvents=0;fillColor=none;top=0;left=0;bottom=0;right=0;points=[[0,0.5],[1,0.5]];portConstraint=eastwest;" parent="zch7z-70ZeMyKY-zdzht-31" vertex="1">
                    <mxGeometry y="90" width="180" height="30" as="geometry"/>
                </mxCell>
                <mxCell id="zch7z-70ZeMyKY-zdzht-39" value="" style="shape=partialRectangle;connectable=0;fillColor=none;top=0;left=0;bottom=0;right=0;editable=1;overflow=hidden;" parent="zch7z-70ZeMyKY-zdzht-38" vertex="1">
                    <mxGeometry width="30" height="30" as="geometry"/>
                </mxCell>
                <mxCell id="zch7z-70ZeMyKY-zdzht-40" value="Row 2" style="shape=partialRectangle;connectable=0;fillColor=none;top=0;left=0;bottom=0;right=0;align=left;spacingLeft=6;overflow=hidden;" parent="zch7z-70ZeMyKY-zdzht-38" vertex="1">
                    <mxGeometry x="30" width="150" height="30" as="geometry"/>
                </mxCell>
                <mxCell id="zch7z-70ZeMyKY-zdzht-41" value="" style="shape=partialRectangle;collapsible=0;dropTarget=0;pointerEvents=0;fillColor=none;top=0;left=0;bottom=0;right=0;points=[[0,0.5],[1,0.5]];portConstraint=eastwest;" parent="zch7z-70ZeMyKY-zdzht-31" vertex="1">
                    <mxGeometry y="120" width="180" height="30" as="geometry"/>
                </mxCell>
                <mxCell id="zch7z-70ZeMyKY-zdzht-42" value="" style="shape=partialRectangle;connectable=0;fillColor=none;top=0;left=0;bottom=0;right=0;editable=1;overflow=hidden;" parent="zch7z-70ZeMyKY-zdzht-41" vertex="1">
                    <mxGeometry width="30" height="30" as="geometry"/>
                </mxCell>
                <mxCell id="zch7z-70ZeMyKY-zdzht-43" value="Row 3" style="shape=partialRectangle;connectable=0;fillColor=none;top=0;left=0;bottom=0;right=0;align=left;spacingLeft=6;overflow=hidden;" parent="zch7z-70ZeMyKY-zdzht-41" vertex="1">
                    <mxGeometry x="30" width="150" height="30" as="geometry"/>
                </mxCell>
                <mxCell id="zch7z-70ZeMyKY-zdzht-44" value="consents_user" style="shape=table;startSize=30;container=1;collapsible=1;childLayout=tableLayout;fixedRows=1;rowLines=0;fontStyle=1;align=center;resizeLast=1;" parent="1" vertex="1">
                    <mxGeometry x="40" y="320" width="180" height="190" as="geometry"/>
                </mxCell>
                <mxCell id="zch7z-70ZeMyKY-zdzht-45" value="" style="shape=partialRectangle;collapsible=0;dropTarget=0;pointerEvents=0;fillColor=none;top=0;left=0;bottom=1;right=0;points=[[0,0.5],[1,0.5]];portConstraint=eastwest;" parent="zch7z-70ZeMyKY-zdzht-44" vertex="1">
                    <mxGeometry y="30" width="180" height="30" as="geometry"/>
                </mxCell>
                <mxCell id="zch7z-70ZeMyKY-zdzht-46" value="PK" style="shape=partialRectangle;connectable=0;fillColor=none;top=0;left=0;bottom=0;right=0;fontStyle=1;overflow=hidden;" parent="zch7z-70ZeMyKY-zdzht-45" vertex="1">
                    <mxGeometry width="30" height="30" as="geometry"/>
                </mxCell>
                <mxCell id="zch7z-70ZeMyKY-zdzht-47" value="UserID" style="shape=partialRectangle;connectable=0;fillColor=none;top=0;left=0;bottom=0;right=0;align=left;spacingLeft=6;fontStyle=5;overflow=hidden;" parent="zch7z-70ZeMyKY-zdzht-45" vertex="1">
                    <mxGeometry x="30" width="150" height="30" as="geometry"/>
                </mxCell>
                <mxCell id="zch7z-70ZeMyKY-zdzht-48" value="" style="shape=partialRectangle;collapsible=0;dropTarget=0;pointerEvents=0;fillColor=none;top=0;left=0;bottom=0;right=0;points=[[0,0.5],[1,0.5]];portConstraint=eastwest;" parent="zch7z-70ZeMyKY-zdzht-44" vertex="1">
                    <mxGeometry y="60" width="180" height="30" as="geometry"/>
                </mxCell>
                <mxCell id="zch7z-70ZeMyKY-zdzht-49" value="" style="shape=partialRectangle;connectable=0;fillColor=none;top=0;left=0;bottom=0;right=0;editable=1;overflow=hidden;" parent="zch7z-70ZeMyKY-zdzht-48" vertex="1">
                    <mxGeometry width="30" height="30" as="geometry"/>
                </mxCell>
                <mxCell id="zch7z-70ZeMyKY-zdzht-50" value="UserEmail" style="shape=partialRectangle;connectable=0;fillColor=none;top=0;left=0;bottom=0;right=0;align=left;spacingLeft=6;overflow=hidden;fontStyle=1" parent="zch7z-70ZeMyKY-zdzht-48" vertex="1">
                    <mxGeometry x="30" width="150" height="30" as="geometry"/>
                </mxCell>
                <mxCell id="zch7z-70ZeMyKY-zdzht-51" value="" style="shape=partialRectangle;collapsible=0;dropTarget=0;pointerEvents=0;fillColor=none;top=0;left=0;bottom=0;right=0;points=[[0,0.5],[1,0.5]];portConstraint=eastwest;" parent="zch7z-70ZeMyKY-zdzht-44" vertex="1">
                    <mxGeometry y="90" width="180" height="30" as="geometry"/>
                </mxCell>
                <mxCell id="zch7z-70ZeMyKY-zdzht-52" value="" style="shape=partialRectangle;connectable=0;fillColor=none;top=0;left=0;bottom=0;right=0;editable=1;overflow=hidden;" parent="zch7z-70ZeMyKY-zdzht-51" vertex="1">
                    <mxGeometry width="30" height="30" as="geometry"/>
                </mxCell>
                <mxCell id="zch7z-70ZeMyKY-zdzht-53" value="CreatedAt" style="shape=partialRectangle;connectable=0;fillColor=none;top=0;left=0;bottom=0;right=0;align=left;spacingLeft=6;overflow=hidden;fontStyle=1" parent="zch7z-70ZeMyKY-zdzht-51" vertex="1">
                    <mxGeometry x="30" width="150" height="30" as="geometry"/>
                </mxCell>
                <mxCell id="zch7z-70ZeMyKY-zdzht-54" value="" style="shape=partialRectangle;collapsible=0;dropTarget=0;pointerEvents=0;fillColor=none;top=0;left=0;bottom=0;right=0;points=[[0,0.5],[1,0.5]];portConstraint=eastwest;" parent="zch7z-70ZeMyKY-zdzht-44" vertex="1">
                    <mxGeometry y="120" width="180" height="30" as="geometry"/>
                </mxCell>
                <mxCell id="zch7z-70ZeMyKY-zdzht-55" value="" style="shape=partialRectangle;connectable=0;fillColor=none;top=0;left=0;bottom=0;right=0;editable=1;overflow=hidden;" parent="zch7z-70ZeMyKY-zdzht-54" vertex="1">
                    <mxGeometry width="30" height="30" as="geometry"/>
                </mxCell>
                <mxCell id="zch7z-70ZeMyKY-zdzht-56" value="LastModifiedAt" style="shape=partialRectangle;connectable=0;fillColor=none;top=0;left=0;bottom=0;right=0;align=left;spacingLeft=6;overflow=hidden;" parent="zch7z-70ZeMyKY-zdzht-54" vertex="1">
                    <mxGeometry x="30" width="150" height="30" as="geometry"/>
                </mxCell>
                <mxCell id="zch7z-70ZeMyKY-zdzht-80" value="" style="shape=partialRectangle;collapsible=0;dropTarget=0;pointerEvents=0;fillColor=none;top=0;left=0;bottom=0;right=0;points=[[0,0.5],[1,0.5]];portConstraint=eastwest;" parent="zch7z-70ZeMyKY-zdzht-44" vertex="1">
                    <mxGeometry y="150" width="180" height="30" as="geometry"/>
                </mxCell>
                <mxCell id="zch7z-70ZeMyKY-zdzht-81" value="" style="shape=partialRectangle;connectable=0;fillColor=none;top=0;left=0;bottom=0;right=0;editable=1;overflow=hidden;" parent="zch7z-70ZeMyKY-zdzht-80" vertex="1">
                    <mxGeometry width="30" height="30" as="geometry"/>
                </mxCell>
                <mxCell id="zch7z-70ZeMyKY-zdzht-82" value="ConsentStatus" style="shape=partialRectangle;connectable=0;fillColor=none;top=0;left=0;bottom=0;right=0;align=left;spacingLeft=6;overflow=hidden;fontStyle=1" parent="zch7z-70ZeMyKY-zdzht-80" vertex="1">
                    <mxGeometry x="30" width="150" height="30" as="geometry"/>
                </mxCell>
                <mxCell id="zch7z-70ZeMyKY-zdzht-57" value="Option 3" style="text;html=1;strokeColor=none;fillColor=none;align=center;verticalAlign=middle;whiteSpace=wrap;rounded=0;" parent="1" vertex="1">
                    <mxGeometry x="30" y="540" width="70" height="20" as="geometry"/>
                </mxCell>
                <mxCell id="zch7z-70ZeMyKY-zdzht-58" value="Option 2" style="text;html=1;strokeColor=none;fillColor=none;align=center;verticalAlign=middle;whiteSpace=wrap;rounded=0;" parent="1" vertex="1">
                    <mxGeometry x="30" y="260" width="70" height="20" as="geometry"/>
                </mxCell>
                <mxCell id="zch7z-70ZeMyKY-zdzht-59" value="consents_event" style="shape=table;startSize=30;container=1;collapsible=1;childLayout=tableLayout;fixedRows=1;rowLines=0;fontStyle=1;align=center;resizeLast=1;" parent="1" vertex="1">
                    <mxGeometry x="335" y="230" width="180" height="160" as="geometry"/>
                </mxCell>
                <mxCell id="zch7z-70ZeMyKY-zdzht-60" value="" style="shape=partialRectangle;collapsible=0;dropTarget=0;pointerEvents=0;fillColor=none;top=0;left=0;bottom=1;right=0;points=[[0,0.5],[1,0.5]];portConstraint=eastwest;" parent="zch7z-70ZeMyKY-zdzht-59" vertex="1">
                    <mxGeometry y="30" width="180" height="30" as="geometry"/>
                </mxCell>
                <mxCell id="zch7z-70ZeMyKY-zdzht-61" value="PK" style="shape=partialRectangle;connectable=0;fillColor=none;top=0;left=0;bottom=0;right=0;fontStyle=1;overflow=hidden;" parent="zch7z-70ZeMyKY-zdzht-60" vertex="1">
                    <mxGeometry width="30" height="30" as="geometry"/>
                </mxCell>
                <mxCell id="zch7z-70ZeMyKY-zdzht-62" value="EventID" style="shape=partialRectangle;connectable=0;fillColor=none;top=0;left=0;bottom=0;right=0;align=left;spacingLeft=6;fontStyle=5;overflow=hidden;" parent="zch7z-70ZeMyKY-zdzht-60" vertex="1">
                    <mxGeometry x="30" width="150" height="30" as="geometry"/>
                </mxCell>
                <mxCell id="zch7z-70ZeMyKY-zdzht-66" value="" style="shape=partialRectangle;collapsible=0;dropTarget=0;pointerEvents=0;fillColor=none;top=0;left=0;bottom=0;right=0;points=[[0,0.5],[1,0.5]];portConstraint=eastwest;" parent="zch7z-70ZeMyKY-zdzht-59" vertex="1">
                    <mxGeometry y="60" width="180" height="30" as="geometry"/>
                </mxCell>
                <mxCell id="zch7z-70ZeMyKY-zdzht-67" value="FK" style="shape=partialRectangle;connectable=0;fillColor=none;top=0;left=0;bottom=0;right=0;editable=1;overflow=hidden;fontStyle=1" parent="zch7z-70ZeMyKY-zdzht-66" vertex="1">
                    <mxGeometry width="30" height="30" as="geometry"/>
                </mxCell>
                <mxCell id="zch7z-70ZeMyKY-zdzht-68" value="ConsentID" style="shape=partialRectangle;connectable=0;fillColor=none;top=0;left=0;bottom=0;right=0;align=left;spacingLeft=6;overflow=hidden;fontStyle=1" parent="zch7z-70ZeMyKY-zdzht-66" vertex="1">
                    <mxGeometry x="30" width="150" height="30" as="geometry"/>
                </mxCell>
                <mxCell id="zch7z-70ZeMyKY-zdzht-63" value="" style="shape=partialRectangle;collapsible=0;dropTarget=0;pointerEvents=0;fillColor=none;top=0;left=0;bottom=0;right=0;points=[[0,0.5],[1,0.5]];portConstraint=eastwest;" parent="zch7z-70ZeMyKY-zdzht-59" vertex="1">
                    <mxGeometry y="90" width="180" height="30" as="geometry"/>
                </mxCell>
                <mxCell id="zch7z-70ZeMyKY-zdzht-64" value="" style="shape=partialRectangle;connectable=0;fillColor=none;top=0;left=0;bottom=0;right=0;editable=1;overflow=hidden;" parent="zch7z-70ZeMyKY-zdzht-63" vertex="1">
                    <mxGeometry width="30" height="30" as="geometry"/>
                </mxCell>
                <mxCell id="zch7z-70ZeMyKY-zdzht-65" value="CreatedAt" style="shape=partialRectangle;connectable=0;fillColor=none;top=0;left=0;bottom=0;right=0;align=left;spacingLeft=6;overflow=hidden;fontStyle=1" parent="zch7z-70ZeMyKY-zdzht-63" vertex="1">
                    <mxGeometry x="30" width="150" height="30" as="geometry"/>
                </mxCell>
                <mxCell id="zch7z-70ZeMyKY-zdzht-69" value="" style="shape=partialRectangle;collapsible=0;dropTarget=0;pointerEvents=0;fillColor=none;top=0;left=0;bottom=0;right=0;points=[[0,0.5],[1,0.5]];portConstraint=eastwest;" parent="zch7z-70ZeMyKY-zdzht-59" vertex="1">
                    <mxGeometry y="120" width="180" height="30" as="geometry"/>
                </mxCell>
                <mxCell id="zch7z-70ZeMyKY-zdzht-70" value="FK" style="shape=partialRectangle;connectable=0;fillColor=none;top=0;left=0;bottom=0;right=0;editable=1;overflow=hidden;fontStyle=1" parent="zch7z-70ZeMyKY-zdzht-69" vertex="1">
                    <mxGeometry width="30" height="30" as="geometry"/>
                </mxCell>
                <mxCell id="zch7z-70ZeMyKY-zdzht-71" value="UserID" style="shape=partialRectangle;connectable=0;fillColor=none;top=0;left=0;bottom=0;right=0;align=left;spacingLeft=6;overflow=hidden;fontStyle=1" parent="zch7z-70ZeMyKY-zdzht-69" vertex="1">
                    <mxGeometry x="30" width="150" height="30" as="geometry"/>
                </mxCell>
                <mxCell id="zch7z-70ZeMyKY-zdzht-76" value="&lt;h1&gt;Tradeoffs&lt;/h1&gt;&lt;p&gt;- Easier to update different attributes&lt;/p&gt;&lt;p&gt;- Possibility to add a feature in future for adding new consent events&lt;br&gt;&lt;/p&gt;" style="text;html=1;strokeColor=none;fillColor=none;spacing=5;spacingTop=-20;whiteSpace=wrap;overflow=hidden;rounded=0;" parent="1" vertex="1">
                    <mxGeometry x="270" y="400" width="190" height="120" as="geometry"/>
                </mxCell>
                <mxCell id="zch7z-70ZeMyKY-zdzht-78" value="&lt;h1&gt;Tradeoffs&lt;/h1&gt;&lt;p&gt;- Would be as well using NoSQL since we're not expressing the relationships between entities&lt;br&gt;&lt;/p&gt;" style="text;html=1;strokeColor=none;fillColor=none;spacing=5;spacingTop=-20;whiteSpace=wrap;overflow=hidden;rounded=0;" parent="1" vertex="1">
                    <mxGeometry x="40" y="50" width="190" height="120" as="geometry"/>
                </mxCell>
                <mxCell id="zch7z-70ZeMyKY-zdzht-79" value="&lt;h1&gt;Tradeoffs&lt;/h1&gt;&lt;p&gt;&lt;br&gt;&lt;/p&gt;&lt;p&gt;&lt;br&gt;&lt;/p&gt;" style="text;html=1;strokeColor=none;fillColor=none;spacing=5;spacingTop=-20;whiteSpace=wrap;overflow=hidden;rounded=0;" parent="1" vertex="1">
                    <mxGeometry x="30" y="580" width="190" height="120" as="geometry"/>
                </mxCell>
                <mxCell id="zch7z-70ZeMyKY-zdzht-84" value="" style="edgeStyle=entityRelationEdgeStyle;fontSize=12;html=1;endArrow=ERoneToMany;exitX=1;exitY=0.5;exitDx=0;exitDy=0;entryX=0;entryY=0.5;entryDx=0;entryDy=0;" parent="1" source="zch7z-70ZeMyKY-zdzht-45" target="zch7z-70ZeMyKY-zdzht-69" edge="1">
                    <mxGeometry width="100" height="100" relative="1" as="geometry">
                        <mxPoint x="290" y="560" as="sourcePoint"/>
                        <mxPoint x="390" y="460" as="targetPoint"/>
                    </mxGeometry>
                </mxCell>
                <mxCell id="zch7z-70ZeMyKY-zdzht-85" value="" style="edgeStyle=entityRelationEdgeStyle;fontSize=12;html=1;endArrow=ERoneToMany;exitX=1;exitY=0.5;exitDx=0;exitDy=0;entryX=0;entryY=0.5;entryDx=0;entryDy=0;" parent="1" edge="1">
                    <mxGeometry width="100" height="100" relative="1" as="geometry">
                        <mxPoint x="560" y="99.17" as="sourcePoint"/>
                        <mxPoint x="675" y="99.17" as="targetPoint"/>
                    </mxGeometry>
                </mxCell>
                <mxCell id="zch7z-70ZeMyKY-zdzht-87" value="&lt;h1&gt;Key&lt;/h1&gt;&lt;p&gt;&lt;br&gt;&lt;/p&gt;" style="text;html=1;strokeColor=none;fillColor=none;spacing=5;spacingTop=-20;whiteSpace=wrap;overflow=hidden;rounded=0;" parent="1" vertex="1">
                    <mxGeometry x="632.5" y="30" width="80" height="40" as="geometry"/>
                </mxCell>
                <mxCell id="zch7z-70ZeMyKY-zdzht-88" value="One to many" style="text;html=1;strokeColor=none;fillColor=none;align=center;verticalAlign=middle;whiteSpace=wrap;rounded=0;" parent="1" vertex="1">
                    <mxGeometry x="670" y="90" width="120" height="20" as="geometry"/>
                </mxCell>
                <mxCell id="zch7z-70ZeMyKY-zdzht-89" value="FK" style="shape=partialRectangle;connectable=0;fillColor=none;top=0;left=0;bottom=0;right=0;editable=1;overflow=hidden;fontStyle=1" parent="1" vertex="1">
                    <mxGeometry x="40" y="470" width="30" height="30" as="geometry"/>
                </mxCell>
                <mxCell id="zch7z-70ZeMyKY-zdzht-90" value="consents_type" style="shape=table;startSize=30;container=1;collapsible=1;childLayout=tableLayout;fixedRows=1;rowLines=0;fontStyle=1;align=center;resizeLast=1;" parent="1" vertex="1">
                    <mxGeometry x="630" y="370" width="180" height="180" as="geometry"/>
                </mxCell>
                <mxCell id="zch7z-70ZeMyKY-zdzht-91" value="" style="shape=partialRectangle;collapsible=0;dropTarget=0;pointerEvents=0;fillColor=none;top=0;left=0;bottom=1;right=0;points=[[0,0.5],[1,0.5]];portConstraint=eastwest;" parent="zch7z-70ZeMyKY-zdzht-90" vertex="1">
                    <mxGeometry y="30" width="180" height="30" as="geometry"/>
                </mxCell>
                <mxCell id="zch7z-70ZeMyKY-zdzht-92" value="PK" style="shape=partialRectangle;connectable=0;fillColor=none;top=0;left=0;bottom=0;right=0;fontStyle=1;overflow=hidden;" parent="zch7z-70ZeMyKY-zdzht-91" vertex="1">
                    <mxGeometry width="30" height="30" as="geometry"/>
                </mxCell>
                <mxCell id="zch7z-70ZeMyKY-zdzht-93" value="ConsentID" style="shape=partialRectangle;connectable=0;fillColor=none;top=0;left=0;bottom=0;right=0;align=left;spacingLeft=6;fontStyle=5;overflow=hidden;" parent="zch7z-70ZeMyKY-zdzht-91" vertex="1">
                    <mxGeometry x="30" width="150" height="30" as="geometry"/>
                </mxCell>
                <mxCell id="zch7z-70ZeMyKY-zdzht-94" value="" style="shape=partialRectangle;collapsible=0;dropTarget=0;pointerEvents=0;fillColor=none;top=0;left=0;bottom=0;right=0;points=[[0,0.5],[1,0.5]];portConstraint=eastwest;" parent="zch7z-70ZeMyKY-zdzht-90" vertex="1">
                    <mxGeometry y="60" width="180" height="30" as="geometry"/>
                </mxCell>
                <mxCell id="zch7z-70ZeMyKY-zdzht-95" value="" style="shape=partialRectangle;connectable=0;fillColor=none;top=0;left=0;bottom=0;right=0;editable=1;overflow=hidden;" parent="zch7z-70ZeMyKY-zdzht-94" vertex="1">
                    <mxGeometry width="30" height="30" as="geometry"/>
                </mxCell>
                <mxCell id="zch7z-70ZeMyKY-zdzht-96" value="SubscriptionType" style="shape=partialRectangle;connectable=0;fillColor=none;top=0;left=0;bottom=0;right=0;align=left;spacingLeft=6;overflow=hidden;fontStyle=1" parent="zch7z-70ZeMyKY-zdzht-94" vertex="1">
                    <mxGeometry x="30" width="150" height="30" as="geometry"/>
                </mxCell>
                <mxCell id="zch7z-70ZeMyKY-zdzht-104" value="" style="shape=partialRectangle;collapsible=0;dropTarget=0;pointerEvents=0;fillColor=none;top=0;left=0;bottom=0;right=0;points=[[0,0.5],[1,0.5]];portConstraint=eastwest;" parent="zch7z-70ZeMyKY-zdzht-90" vertex="1">
                    <mxGeometry y="90" width="180" height="30" as="geometry"/>
                </mxCell>
                <mxCell id="zch7z-70ZeMyKY-zdzht-105" value="" style="shape=partialRectangle;connectable=0;fillColor=none;top=0;left=0;bottom=0;right=0;editable=1;overflow=hidden;" parent="zch7z-70ZeMyKY-zdzht-104" vertex="1">
                    <mxGeometry width="30" height="30" as="geometry"/>
                </mxCell>
                <mxCell id="zch7z-70ZeMyKY-zdzht-106" value="SubscriptionDescription" style="shape=partialRectangle;connectable=0;fillColor=none;top=0;left=0;bottom=0;right=0;align=left;spacingLeft=6;overflow=hidden;fontStyle=1" parent="zch7z-70ZeMyKY-zdzht-104" vertex="1">
                    <mxGeometry x="30" width="150" height="30" as="geometry"/>
                </mxCell>
                <mxCell id="zch7z-70ZeMyKY-zdzht-97" value="" style="shape=partialRectangle;collapsible=0;dropTarget=0;pointerEvents=0;fillColor=none;top=0;left=0;bottom=0;right=0;points=[[0,0.5],[1,0.5]];portConstraint=eastwest;" parent="zch7z-70ZeMyKY-zdzht-90" vertex="1">
                    <mxGeometry y="120" width="180" height="30" as="geometry"/>
                </mxCell>
                <mxCell id="zch7z-70ZeMyKY-zdzht-98" value="" style="shape=partialRectangle;connectable=0;fillColor=none;top=0;left=0;bottom=0;right=0;editable=1;overflow=hidden;" parent="zch7z-70ZeMyKY-zdzht-97" vertex="1">
                    <mxGeometry width="30" height="30" as="geometry"/>
                </mxCell>
                <mxCell id="zch7z-70ZeMyKY-zdzht-99" value="CreatedAt" style="shape=partialRectangle;connectable=0;fillColor=none;top=0;left=0;bottom=0;right=0;align=left;spacingLeft=6;overflow=hidden;fontStyle=1" parent="zch7z-70ZeMyKY-zdzht-97" vertex="1">
                    <mxGeometry x="30" width="150" height="30" as="geometry"/>
                </mxCell>
                <mxCell id="zch7z-70ZeMyKY-zdzht-100" value="" style="shape=partialRectangle;collapsible=0;dropTarget=0;pointerEvents=0;fillColor=none;top=0;left=0;bottom=0;right=0;points=[[0,0.5],[1,0.5]];portConstraint=eastwest;" parent="zch7z-70ZeMyKY-zdzht-90" vertex="1">
                    <mxGeometry y="150" width="180" height="30" as="geometry"/>
                </mxCell>
                <mxCell id="zch7z-70ZeMyKY-zdzht-101" value="" style="shape=partialRectangle;connectable=0;fillColor=none;top=0;left=0;bottom=0;right=0;editable=1;overflow=hidden;fontStyle=1" parent="zch7z-70ZeMyKY-zdzht-100" vertex="1">
                    <mxGeometry width="30" height="30" as="geometry"/>
                </mxCell>
                <mxCell id="zch7z-70ZeMyKY-zdzht-102" value="" style="shape=partialRectangle;connectable=0;fillColor=none;top=0;left=0;bottom=0;right=0;align=left;spacingLeft=6;overflow=hidden;fontStyle=1" parent="zch7z-70ZeMyKY-zdzht-100" vertex="1">
                    <mxGeometry x="30" width="150" height="30" as="geometry"/>
                </mxCell>
                <mxCell id="zch7z-70ZeMyKY-zdzht-103" value="" style="edgeStyle=entityRelationEdgeStyle;fontSize=12;html=1;endArrow=ERmandOne;startArrow=ERmandOne;entryX=0;entryY=0.5;entryDx=0;entryDy=0;exitX=1;exitY=0.5;exitDx=0;exitDy=0;" parent="1" source="zch7z-70ZeMyKY-zdzht-66" target="zch7z-70ZeMyKY-zdzht-91" edge="1">
                    <mxGeometry width="100" height="100" relative="1" as="geometry">
                        <mxPoint x="370" y="550" as="sourcePoint"/>
                        <mxPoint x="470" y="450" as="targetPoint"/>
                    </mxGeometry>
                </mxCell>
                <mxCell id="zch7z-70ZeMyKY-zdzht-107" value="LastModifiedAt" style="shape=partialRectangle;connectable=0;fillColor=none;top=0;left=0;bottom=0;right=0;align=left;spacingLeft=6;overflow=hidden;fontStyle=0" parent="1" vertex="1">
                    <mxGeometry x="660" y="520" width="150" height="30" as="geometry"/>
                </mxCell>
                <mxCell id="zch7z-70ZeMyKY-zdzht-108" value="" style="edgeStyle=entityRelationEdgeStyle;fontSize=12;html=1;endArrow=ERmandOne;startArrow=ERmandOne;" parent="1" edge="1">
                    <mxGeometry width="100" height="100" relative="1" as="geometry">
                        <mxPoint x="560" y="149.17" as="sourcePoint"/>
                        <mxPoint x="680" y="149.17" as="targetPoint"/>
                    </mxGeometry>
                </mxCell>
                <mxCell id="zch7z-70ZeMyKY-zdzht-109" value="One to one" style="text;html=1;strokeColor=none;fillColor=none;align=center;verticalAlign=middle;whiteSpace=wrap;rounded=0;" parent="1" vertex="1">
                    <mxGeometry x="670" y="140" width="120" height="20" as="geometry"/>
                </mxCell>
                <mxCell id="zch7z-70ZeMyKY-zdzht-110" value="consents_user" style="shape=table;startSize=30;container=1;collapsible=1;childLayout=tableLayout;fixedRows=1;rowLines=0;fontStyle=1;align=center;resizeLast=1;" parent="1" vertex="1">
                    <mxGeometry x="230" y="600" width="180" height="190" as="geometry"/>
                </mxCell>
                <mxCell id="zch7z-70ZeMyKY-zdzht-111" value="" style="shape=partialRectangle;collapsible=0;dropTarget=0;pointerEvents=0;fillColor=none;top=0;left=0;bottom=1;right=0;points=[[0,0.5],[1,0.5]];portConstraint=eastwest;" parent="zch7z-70ZeMyKY-zdzht-110" vertex="1">
                    <mxGeometry y="30" width="180" height="30" as="geometry"/>
                </mxCell>
                <mxCell id="zch7z-70ZeMyKY-zdzht-112" value="PK" style="shape=partialRectangle;connectable=0;fillColor=none;top=0;left=0;bottom=0;right=0;fontStyle=1;overflow=hidden;" parent="zch7z-70ZeMyKY-zdzht-111" vertex="1">
                    <mxGeometry width="30" height="30" as="geometry"/>
                </mxCell>
                <mxCell id="zch7z-70ZeMyKY-zdzht-113" value="UserID" style="shape=partialRectangle;connectable=0;fillColor=none;top=0;left=0;bottom=0;right=0;align=left;spacingLeft=6;fontStyle=5;overflow=hidden;" parent="zch7z-70ZeMyKY-zdzht-111" vertex="1">
                    <mxGeometry x="30" width="150" height="30" as="geometry"/>
                </mxCell>
                <mxCell id="zch7z-70ZeMyKY-zdzht-114" value="" style="shape=partialRectangle;collapsible=0;dropTarget=0;pointerEvents=0;fillColor=none;top=0;left=0;bottom=0;right=0;points=[[0,0.5],[1,0.5]];portConstraint=eastwest;" parent="zch7z-70ZeMyKY-zdzht-110" vertex="1">
                    <mxGeometry y="60" width="180" height="30" as="geometry"/>
                </mxCell>
                <mxCell id="zch7z-70ZeMyKY-zdzht-115" value="SK" style="shape=partialRectangle;connectable=0;fillColor=none;top=0;left=0;bottom=0;right=0;editable=1;overflow=hidden;fontStyle=1" parent="zch7z-70ZeMyKY-zdzht-114" vertex="1">
                    <mxGeometry width="30" height="30" as="geometry"/>
                </mxCell>
                <mxCell id="zch7z-70ZeMyKY-zdzht-116" value="UserEmail" style="shape=partialRectangle;connectable=0;fillColor=none;top=0;left=0;bottom=0;right=0;align=left;spacingLeft=6;overflow=hidden;fontStyle=1" parent="zch7z-70ZeMyKY-zdzht-114" vertex="1">
                    <mxGeometry x="30" width="150" height="30" as="geometry"/>
                </mxCell>
                <mxCell id="zch7z-70ZeMyKY-zdzht-117" value="" style="shape=partialRectangle;collapsible=0;dropTarget=0;pointerEvents=0;fillColor=none;top=0;left=0;bottom=0;right=0;points=[[0,0.5],[1,0.5]];portConstraint=eastwest;" parent="zch7z-70ZeMyKY-zdzht-110" vertex="1">
                    <mxGeometry y="90" width="180" height="30" as="geometry"/>
                </mxCell>
                <mxCell id="zch7z-70ZeMyKY-zdzht-118" value="" style="shape=partialRectangle;connectable=0;fillColor=none;top=0;left=0;bottom=0;right=0;editable=1;overflow=hidden;" parent="zch7z-70ZeMyKY-zdzht-117" vertex="1">
                    <mxGeometry width="30" height="30" as="geometry"/>
                </mxCell>
                <mxCell id="zch7z-70ZeMyKY-zdzht-119" value="CreatedAt" style="shape=partialRectangle;connectable=0;fillColor=none;top=0;left=0;bottom=0;right=0;align=left;spacingLeft=6;overflow=hidden;fontStyle=1" parent="zch7z-70ZeMyKY-zdzht-117" vertex="1">
                    <mxGeometry x="30" width="150" height="30" as="geometry"/>
                </mxCell>
                <mxCell id="zch7z-70ZeMyKY-zdzht-120" value="" style="shape=partialRectangle;collapsible=0;dropTarget=0;pointerEvents=0;fillColor=none;top=0;left=0;bottom=0;right=0;points=[[0,0.5],[1,0.5]];portConstraint=eastwest;" parent="zch7z-70ZeMyKY-zdzht-110" vertex="1">
                    <mxGeometry y="120" width="180" height="30" as="geometry"/>
                </mxCell>
                <mxCell id="zch7z-70ZeMyKY-zdzht-121" value="" style="shape=partialRectangle;connectable=0;fillColor=none;top=0;left=0;bottom=0;right=0;editable=1;overflow=hidden;" parent="zch7z-70ZeMyKY-zdzht-120" vertex="1">
                    <mxGeometry width="30" height="30" as="geometry"/>
                </mxCell>
                <mxCell id="zch7z-70ZeMyKY-zdzht-122" value="LastModifiedAt" style="shape=partialRectangle;connectable=0;fillColor=none;top=0;left=0;bottom=0;right=0;align=left;spacingLeft=6;overflow=hidden;" parent="zch7z-70ZeMyKY-zdzht-120" vertex="1">
                    <mxGeometry x="30" width="150" height="30" as="geometry"/>
                </mxCell>
                <mxCell id="zch7z-70ZeMyKY-zdzht-123" value="" style="shape=partialRectangle;collapsible=0;dropTarget=0;pointerEvents=0;fillColor=none;top=0;left=0;bottom=0;right=0;points=[[0,0.5],[1,0.5]];portConstraint=eastwest;" parent="zch7z-70ZeMyKY-zdzht-110" vertex="1">
                    <mxGeometry y="150" width="180" height="30" as="geometry"/>
                </mxCell>
                <mxCell id="zch7z-70ZeMyKY-zdzht-124" value="" style="shape=partialRectangle;connectable=0;fillColor=none;top=0;left=0;bottom=0;right=0;editable=1;overflow=hidden;" parent="zch7z-70ZeMyKY-zdzht-123" vertex="1">
                    <mxGeometry width="30" height="30" as="geometry"/>
                </mxCell>
                <mxCell id="zch7z-70ZeMyKY-zdzht-125" value="ConsentStatus" style="shape=partialRectangle;connectable=0;fillColor=none;top=0;left=0;bottom=0;right=0;align=left;spacingLeft=6;overflow=hidden;fontStyle=1" parent="zch7z-70ZeMyKY-zdzht-123" vertex="1">
                    <mxGeometry x="30" width="150" height="30" as="geometry"/>
                </mxCell>
                <mxCell id="zch7z-70ZeMyKY-zdzht-161" value="consents_consent" style="shape=table;startSize=30;container=1;collapsible=1;childLayout=tableLayout;fixedRows=1;rowLines=0;fontStyle=1;align=center;resizeLast=1;" parent="1" vertex="1">
                    <mxGeometry x="490" y="780" width="180" height="220" as="geometry"/>
                </mxCell>
                <mxCell id="zch7z-70ZeMyKY-zdzht-162" value="" style="shape=partialRectangle;collapsible=0;dropTarget=0;pointerEvents=0;fillColor=none;top=0;left=0;bottom=1;right=0;points=[[0,0.5],[1,0.5]];portConstraint=eastwest;" parent="zch7z-70ZeMyKY-zdzht-161" vertex="1">
                    <mxGeometry y="30" width="180" height="30" as="geometry"/>
                </mxCell>
                <mxCell id="zch7z-70ZeMyKY-zdzht-163" value="PK" style="shape=partialRectangle;connectable=0;fillColor=none;top=0;left=0;bottom=0;right=0;fontStyle=1;overflow=hidden;" parent="zch7z-70ZeMyKY-zdzht-162" vertex="1">
                    <mxGeometry width="30" height="30" as="geometry"/>
                </mxCell>
                <mxCell id="zch7z-70ZeMyKY-zdzht-164" value="ConsentID" style="shape=partialRectangle;connectable=0;fillColor=none;top=0;left=0;bottom=0;right=0;align=left;spacingLeft=6;fontStyle=5;overflow=hidden;" parent="zch7z-70ZeMyKY-zdzht-162" vertex="1">
                    <mxGeometry x="30" width="150" height="30" as="geometry"/>
                </mxCell>
                <mxCell id="zch7z-70ZeMyKY-zdzht-165" value="" style="shape=partialRectangle;collapsible=0;dropTarget=0;pointerEvents=0;fillColor=none;top=0;left=0;bottom=0;right=0;points=[[0,0.5],[1,0.5]];portConstraint=eastwest;" parent="zch7z-70ZeMyKY-zdzht-161" vertex="1">
                    <mxGeometry y="60" width="180" height="30" as="geometry"/>
                </mxCell>
                <mxCell id="zch7z-70ZeMyKY-zdzht-166" value="FK" style="shape=partialRectangle;connectable=0;fillColor=none;top=0;left=0;bottom=0;right=0;editable=1;overflow=hidden;fontStyle=1" parent="zch7z-70ZeMyKY-zdzht-165" vertex="1">
                    <mxGeometry width="30" height="30" as="geometry"/>
                </mxCell>
                <mxCell id="zch7z-70ZeMyKY-zdzht-167" value="UserID" style="shape=partialRectangle;connectable=0;fillColor=none;top=0;left=0;bottom=0;right=0;align=left;spacingLeft=6;overflow=hidden;fontStyle=1" parent="zch7z-70ZeMyKY-zdzht-165" vertex="1">
                    <mxGeometry x="30" width="150" height="30" as="geometry"/>
                </mxCell>
                <mxCell id="zch7z-70ZeMyKY-zdzht-195" value="" style="shape=partialRectangle;collapsible=0;dropTarget=0;pointerEvents=0;fillColor=none;top=0;left=0;bottom=0;right=0;points=[[0,0.5],[1,0.5]];portConstraint=eastwest;" parent="zch7z-70ZeMyKY-zdzht-161" vertex="1">
                    <mxGeometry y="90" width="180" height="30" as="geometry"/>
                </mxCell>
                <mxCell id="zch7z-70ZeMyKY-zdzht-196" value="" style="shape=partialRectangle;connectable=0;fillColor=none;top=0;left=0;bottom=0;right=0;editable=1;overflow=hidden;" parent="zch7z-70ZeMyKY-zdzht-195" vertex="1">
                    <mxGeometry width="30" height="30" as="geometry"/>
                </mxCell>
                <mxCell id="zch7z-70ZeMyKY-zdzht-197" value="SmsNotifications (Bool)" style="shape=partialRectangle;connectable=0;fillColor=none;top=0;left=0;bottom=0;right=0;align=left;spacingLeft=6;overflow=hidden;fontStyle=1" parent="zch7z-70ZeMyKY-zdzht-195" vertex="1">
                    <mxGeometry x="30" width="150" height="30" as="geometry"/>
                </mxCell>
                <mxCell id="zch7z-70ZeMyKY-zdzht-192" value="" style="shape=partialRectangle;collapsible=0;dropTarget=0;pointerEvents=0;fillColor=none;top=0;left=0;bottom=0;right=0;points=[[0,0.5],[1,0.5]];portConstraint=eastwest;" parent="zch7z-70ZeMyKY-zdzht-161" vertex="1">
                    <mxGeometry y="120" width="180" height="30" as="geometry"/>
                </mxCell>
                <mxCell id="zch7z-70ZeMyKY-zdzht-193" value="" style="shape=partialRectangle;connectable=0;fillColor=none;top=0;left=0;bottom=0;right=0;editable=1;overflow=hidden;" parent="zch7z-70ZeMyKY-zdzht-192" vertex="1">
                    <mxGeometry width="30" height="30" as="geometry"/>
                </mxCell>
                <mxCell id="zch7z-70ZeMyKY-zdzht-194" value="EmailNotifications (Bool)" style="shape=partialRectangle;connectable=0;fillColor=none;top=0;left=0;bottom=0;right=0;align=left;spacingLeft=6;overflow=hidden;fontStyle=1" parent="zch7z-70ZeMyKY-zdzht-192" vertex="1">
                    <mxGeometry x="30" width="150" height="30" as="geometry"/>
                </mxCell>
                <mxCell id="zch7z-70ZeMyKY-zdzht-168" value="" style="shape=partialRectangle;collapsible=0;dropTarget=0;pointerEvents=0;fillColor=none;top=0;left=0;bottom=0;right=0;points=[[0,0.5],[1,0.5]];portConstraint=eastwest;" parent="zch7z-70ZeMyKY-zdzht-161" vertex="1">
                    <mxGeometry y="150" width="180" height="30" as="geometry"/>
                </mxCell>
                <mxCell id="zch7z-70ZeMyKY-zdzht-169" value="" style="shape=partialRectangle;connectable=0;fillColor=none;top=0;left=0;bottom=0;right=0;editable=1;overflow=hidden;" parent="zch7z-70ZeMyKY-zdzht-168" vertex="1">
                    <mxGeometry width="30" height="30" as="geometry"/>
                </mxCell>
                <mxCell id="zch7z-70ZeMyKY-zdzht-170" value="CreatedAt (Datetime)" style="shape=partialRectangle;connectable=0;fillColor=none;top=0;left=0;bottom=0;right=0;align=left;spacingLeft=6;overflow=hidden;fontStyle=1" parent="zch7z-70ZeMyKY-zdzht-168" vertex="1">
                    <mxGeometry x="30" width="150" height="30" as="geometry"/>
                </mxCell>
                <mxCell id="zch7z-70ZeMyKY-zdzht-171" value="" style="shape=partialRectangle;collapsible=0;dropTarget=0;pointerEvents=0;fillColor=none;top=0;left=0;bottom=0;right=0;points=[[0,0.5],[1,0.5]];portConstraint=eastwest;" parent="zch7z-70ZeMyKY-zdzht-161" vertex="1">
                    <mxGeometry y="180" width="180" height="30" as="geometry"/>
                </mxCell>
                <mxCell id="zch7z-70ZeMyKY-zdzht-172" value="" style="shape=partialRectangle;connectable=0;fillColor=none;top=0;left=0;bottom=0;right=0;editable=1;overflow=hidden;" parent="zch7z-70ZeMyKY-zdzht-171" vertex="1">
                    <mxGeometry width="30" height="30" as="geometry"/>
                </mxCell>
                <mxCell id="zch7z-70ZeMyKY-zdzht-173" value="LastModifiedAt (Datetime)" style="shape=partialRectangle;connectable=0;fillColor=none;top=0;left=0;bottom=0;right=0;align=left;spacingLeft=6;overflow=hidden;" parent="zch7z-70ZeMyKY-zdzht-171" vertex="1">
                    <mxGeometry x="30" width="150" height="30" as="geometry"/>
                </mxCell>
                <mxCell id="zch7z-70ZeMyKY-zdzht-177" value="consents_event" style="shape=table;startSize=30;container=1;collapsible=1;childLayout=tableLayout;fixedRows=1;rowLines=0;fontStyle=1;align=center;resizeLast=1;" parent="1" vertex="1">
                    <mxGeometry x="550" y="590" width="180" height="160" as="geometry"/>
                </mxCell>
                <mxCell id="zch7z-70ZeMyKY-zdzht-178" value="" style="shape=partialRectangle;collapsible=0;dropTarget=0;pointerEvents=0;fillColor=none;top=0;left=0;bottom=1;right=0;points=[[0,0.5],[1,0.5]];portConstraint=eastwest;" parent="zch7z-70ZeMyKY-zdzht-177" vertex="1">
                    <mxGeometry y="30" width="180" height="30" as="geometry"/>
                </mxCell>
                <mxCell id="zch7z-70ZeMyKY-zdzht-179" value="PK" style="shape=partialRectangle;connectable=0;fillColor=none;top=0;left=0;bottom=0;right=0;fontStyle=1;overflow=hidden;" parent="zch7z-70ZeMyKY-zdzht-178" vertex="1">
                    <mxGeometry width="30" height="30" as="geometry"/>
                </mxCell>
                <mxCell id="zch7z-70ZeMyKY-zdzht-180" value="EventID" style="shape=partialRectangle;connectable=0;fillColor=none;top=0;left=0;bottom=0;right=0;align=left;spacingLeft=6;fontStyle=5;overflow=hidden;" parent="zch7z-70ZeMyKY-zdzht-178" vertex="1">
                    <mxGeometry x="30" width="150" height="30" as="geometry"/>
                </mxCell>
                <mxCell id="zch7z-70ZeMyKY-zdzht-181" value="" style="shape=partialRectangle;collapsible=0;dropTarget=0;pointerEvents=0;fillColor=none;top=0;left=0;bottom=0;right=0;points=[[0,0.5],[1,0.5]];portConstraint=eastwest;" parent="zch7z-70ZeMyKY-zdzht-177" vertex="1">
                    <mxGeometry y="60" width="180" height="30" as="geometry"/>
                </mxCell>
                <mxCell id="zch7z-70ZeMyKY-zdzht-182" value="FK" style="shape=partialRectangle;connectable=0;fillColor=none;top=0;left=0;bottom=0;right=0;editable=1;overflow=hidden;fontStyle=1" parent="zch7z-70ZeMyKY-zdzht-181" vertex="1">
                    <mxGeometry width="30" height="30" as="geometry"/>
                </mxCell>
                <mxCell id="zch7z-70ZeMyKY-zdzht-183" value="ConsentID" style="shape=partialRectangle;connectable=0;fillColor=none;top=0;left=0;bottom=0;right=0;align=left;spacingLeft=6;overflow=hidden;fontStyle=1" parent="zch7z-70ZeMyKY-zdzht-181" vertex="1">
                    <mxGeometry x="30" width="150" height="30" as="geometry"/>
                </mxCell>
                <mxCell id="zch7z-70ZeMyKY-zdzht-184" value="" style="shape=partialRectangle;collapsible=0;dropTarget=0;pointerEvents=0;fillColor=none;top=0;left=0;bottom=0;right=0;points=[[0,0.5],[1,0.5]];portConstraint=eastwest;" parent="zch7z-70ZeMyKY-zdzht-177" vertex="1">
                    <mxGeometry y="90" width="180" height="30" as="geometry"/>
                </mxCell>
                <mxCell id="zch7z-70ZeMyKY-zdzht-185" value="" style="shape=partialRectangle;connectable=0;fillColor=none;top=0;left=0;bottom=0;right=0;editable=1;overflow=hidden;" parent="zch7z-70ZeMyKY-zdzht-184" vertex="1">
                    <mxGeometry width="30" height="30" as="geometry"/>
                </mxCell>
                <mxCell id="zch7z-70ZeMyKY-zdzht-186" value="CreatedAt" style="shape=partialRectangle;connectable=0;fillColor=none;top=0;left=0;bottom=0;right=0;align=left;spacingLeft=6;overflow=hidden;fontStyle=1" parent="zch7z-70ZeMyKY-zdzht-184" vertex="1">
                    <mxGeometry x="30" width="150" height="30" as="geometry"/>
                </mxCell>
                <mxCell id="zch7z-70ZeMyKY-zdzht-187" value="" style="shape=partialRectangle;collapsible=0;dropTarget=0;pointerEvents=0;fillColor=none;top=0;left=0;bottom=0;right=0;points=[[0,0.5],[1,0.5]];portConstraint=eastwest;" parent="zch7z-70ZeMyKY-zdzht-177" vertex="1">
                    <mxGeometry y="120" width="180" height="30" as="geometry"/>
                </mxCell>
                <mxCell id="zch7z-70ZeMyKY-zdzht-188" value="FK" style="shape=partialRectangle;connectable=0;fillColor=none;top=0;left=0;bottom=0;right=0;editable=1;overflow=hidden;fontStyle=1" parent="zch7z-70ZeMyKY-zdzht-187" vertex="1">
                    <mxGeometry width="30" height="30" as="geometry"/>
                </mxCell>
                <mxCell id="zch7z-70ZeMyKY-zdzht-189" value="UserID" style="shape=partialRectangle;connectable=0;fillColor=none;top=0;left=0;bottom=0;right=0;align=left;spacingLeft=6;overflow=hidden;fontStyle=1" parent="zch7z-70ZeMyKY-zdzht-187" vertex="1">
                    <mxGeometry x="30" width="150" height="30" as="geometry"/>
                </mxCell>
                <mxCell id="zch7z-70ZeMyKY-zdzht-190" value="" style="edgeStyle=entityRelationEdgeStyle;fontSize=12;html=1;endArrow=ERoneToMany;exitX=1.031;exitY=0.181;exitDx=0;exitDy=0;entryX=0;entryY=0.5;entryDx=0;entryDy=0;exitPerimeter=0;" parent="1" source="zch7z-70ZeMyKY-zdzht-110" target="zch7z-70ZeMyKY-zdzht-187" edge="1">
                    <mxGeometry width="100" height="100" relative="1" as="geometry">
                        <mxPoint x="210" y="538.8199999999999" as="sourcePoint"/>
                        <mxPoint x="325" y="538.8199999999999" as="targetPoint"/>
                    </mxGeometry>
                </mxCell>
                <mxCell id="zch7z-70ZeMyKY-zdzht-191" value="" style="edgeStyle=entityRelationEdgeStyle;fontSize=12;html=1;endArrow=ERmandOne;startArrow=ERmandOne;exitX=1.025;exitY=-0.147;exitDx=0;exitDy=0;exitPerimeter=0;" parent="1" source="zch7z-70ZeMyKY-zdzht-114" edge="1">
                    <mxGeometry width="100" height="100" relative="1" as="geometry">
                        <mxPoint x="675" y="660" as="sourcePoint"/>
                        <mxPoint x="480" y="860" as="targetPoint"/>
                    </mxGeometry>
                </mxCell>
                <mxCell id="re5dIPfYJAyWiZc1NxkR-1" value="&lt;h1&gt;Tradeoffs&lt;/h1&gt;&lt;p&gt;&lt;br&gt;&lt;/p&gt;&lt;p&gt;&lt;br&gt;&lt;/p&gt;" style="text;html=1;strokeColor=none;fillColor=none;spacing=5;spacingTop=-20;whiteSpace=wrap;overflow=hidden;rounded=0;" parent="1" vertex="1">
                    <mxGeometry x="30" y="1040" width="190" height="120" as="geometry"/>
                </mxCell>
                <mxCell id="re5dIPfYJAyWiZc1NxkR-2" value="consents_user" style="shape=table;startSize=30;container=1;collapsible=1;childLayout=tableLayout;fixedRows=1;rowLines=0;fontStyle=1;align=center;resizeLast=1;" parent="1" vertex="1">
                    <mxGeometry x="230" y="1060" width="180" height="210" as="geometry"/>
                </mxCell>
                <mxCell id="re5dIPfYJAyWiZc1NxkR-3" value="" style="shape=partialRectangle;collapsible=0;dropTarget=0;pointerEvents=0;fillColor=none;top=0;left=0;bottom=1;right=0;points=[[0,0.5],[1,0.5]];portConstraint=eastwest;" parent="re5dIPfYJAyWiZc1NxkR-2" vertex="1">
                    <mxGeometry y="30" width="180" height="30" as="geometry"/>
                </mxCell>
                <mxCell id="re5dIPfYJAyWiZc1NxkR-4" value="PK" style="shape=partialRectangle;connectable=0;fillColor=none;top=0;left=0;bottom=0;right=0;fontStyle=1;overflow=hidden;" parent="re5dIPfYJAyWiZc1NxkR-3" vertex="1">
                    <mxGeometry width="30" height="30" as="geometry"/>
                </mxCell>
                <mxCell id="re5dIPfYJAyWiZc1NxkR-5" value="UserID" style="shape=partialRectangle;connectable=0;fillColor=none;top=0;left=0;bottom=0;right=0;align=left;spacingLeft=6;fontStyle=5;overflow=hidden;" parent="re5dIPfYJAyWiZc1NxkR-3" vertex="1">
                    <mxGeometry x="30" width="150" height="30" as="geometry"/>
                </mxCell>
                <mxCell id="re5dIPfYJAyWiZc1NxkR-6" value="" style="shape=partialRectangle;collapsible=0;dropTarget=0;pointerEvents=0;fillColor=none;top=0;left=0;bottom=0;right=0;points=[[0,0.5],[1,0.5]];portConstraint=eastwest;" parent="re5dIPfYJAyWiZc1NxkR-2" vertex="1">
                    <mxGeometry y="60" width="180" height="30" as="geometry"/>
                </mxCell>
                <mxCell id="re5dIPfYJAyWiZc1NxkR-7" value="SK" style="shape=partialRectangle;connectable=0;fillColor=none;top=0;left=0;bottom=0;right=0;editable=1;overflow=hidden;fontStyle=1" parent="re5dIPfYJAyWiZc1NxkR-6" vertex="1">
                    <mxGeometry width="30" height="30" as="geometry"/>
                </mxCell>
                <mxCell id="re5dIPfYJAyWiZc1NxkR-8" value="UserEmail" style="shape=partialRectangle;connectable=0;fillColor=none;top=0;left=0;bottom=0;right=0;align=left;spacingLeft=6;overflow=hidden;fontStyle=1" parent="re5dIPfYJAyWiZc1NxkR-6" vertex="1">
                    <mxGeometry x="30" width="150" height="30" as="geometry"/>
                </mxCell>
                <mxCell id="re5dIPfYJAyWiZc1NxkR-15" value="" style="shape=partialRectangle;collapsible=0;dropTarget=0;pointerEvents=0;fillColor=none;top=0;left=0;bottom=0;right=0;points=[[0,0.5],[1,0.5]];portConstraint=eastwest;" parent="re5dIPfYJAyWiZc1NxkR-2" vertex="1">
                    <mxGeometry y="90" width="180" height="30" as="geometry"/>
                </mxCell>
                <mxCell id="re5dIPfYJAyWiZc1NxkR-16" value="" style="shape=partialRectangle;connectable=0;fillColor=none;top=0;left=0;bottom=0;right=0;editable=1;overflow=hidden;" parent="re5dIPfYJAyWiZc1NxkR-15" vertex="1">
                    <mxGeometry width="30" height="30" as="geometry"/>
                </mxCell>
                <mxCell id="re5dIPfYJAyWiZc1NxkR-17" value="SmsNotifications (Bool)" style="shape=partialRectangle;connectable=0;fillColor=none;top=0;left=0;bottom=0;right=0;align=left;spacingLeft=6;overflow=hidden;fontStyle=1" parent="re5dIPfYJAyWiZc1NxkR-15" vertex="1">
                    <mxGeometry x="30" width="150" height="30" as="geometry"/>
                </mxCell>
                <mxCell id="re5dIPfYJAyWiZc1NxkR-52" value="" style="shape=partialRectangle;collapsible=0;dropTarget=0;pointerEvents=0;fillColor=none;top=0;left=0;bottom=0;right=0;points=[[0,0.5],[1,0.5]];portConstraint=eastwest;" parent="re5dIPfYJAyWiZc1NxkR-2" vertex="1">
                    <mxGeometry y="120" width="180" height="30" as="geometry"/>
                </mxCell>
                <mxCell id="re5dIPfYJAyWiZc1NxkR-53" value="" style="shape=partialRectangle;connectable=0;fillColor=none;top=0;left=0;bottom=0;right=0;editable=1;overflow=hidden;" parent="re5dIPfYJAyWiZc1NxkR-52" vertex="1">
                    <mxGeometry width="30" height="30" as="geometry"/>
                </mxCell>
                <mxCell id="re5dIPfYJAyWiZc1NxkR-54" value="EmailNotifications (Bool)" style="shape=partialRectangle;connectable=0;fillColor=none;top=0;left=0;bottom=0;right=0;align=left;spacingLeft=6;overflow=hidden;fontStyle=1" parent="re5dIPfYJAyWiZc1NxkR-52" vertex="1">
                    <mxGeometry x="30" width="150" height="30" as="geometry"/>
                </mxCell>
                <mxCell id="re5dIPfYJAyWiZc1NxkR-9" value="" style="shape=partialRectangle;collapsible=0;dropTarget=0;pointerEvents=0;fillColor=none;top=0;left=0;bottom=0;right=0;points=[[0,0.5],[1,0.5]];portConstraint=eastwest;" parent="re5dIPfYJAyWiZc1NxkR-2" vertex="1">
                    <mxGeometry y="150" width="180" height="30" as="geometry"/>
                </mxCell>
                <mxCell id="re5dIPfYJAyWiZc1NxkR-10" value="" style="shape=partialRectangle;connectable=0;fillColor=none;top=0;left=0;bottom=0;right=0;editable=1;overflow=hidden;" parent="re5dIPfYJAyWiZc1NxkR-9" vertex="1">
                    <mxGeometry width="30" height="30" as="geometry"/>
                </mxCell>
                <mxCell id="re5dIPfYJAyWiZc1NxkR-11" value="CreatedAt" style="shape=partialRectangle;connectable=0;fillColor=none;top=0;left=0;bottom=0;right=0;align=left;spacingLeft=6;overflow=hidden;fontStyle=1" parent="re5dIPfYJAyWiZc1NxkR-9" vertex="1">
                    <mxGeometry x="30" width="150" height="30" as="geometry"/>
                </mxCell>
                <mxCell id="re5dIPfYJAyWiZc1NxkR-12" value="" style="shape=partialRectangle;collapsible=0;dropTarget=0;pointerEvents=0;fillColor=none;top=0;left=0;bottom=0;right=0;points=[[0,0.5],[1,0.5]];portConstraint=eastwest;" parent="re5dIPfYJAyWiZc1NxkR-2" vertex="1">
                    <mxGeometry y="180" width="180" height="30" as="geometry"/>
                </mxCell>
                <mxCell id="re5dIPfYJAyWiZc1NxkR-13" value="" style="shape=partialRectangle;connectable=0;fillColor=none;top=0;left=0;bottom=0;right=0;editable=1;overflow=hidden;" parent="re5dIPfYJAyWiZc1NxkR-12" vertex="1">
                    <mxGeometry width="30" height="30" as="geometry"/>
                </mxCell>
                <mxCell id="re5dIPfYJAyWiZc1NxkR-14" value="LastModifiedAt" style="shape=partialRectangle;connectable=0;fillColor=none;top=0;left=0;bottom=0;right=0;align=left;spacingLeft=6;overflow=hidden;" parent="re5dIPfYJAyWiZc1NxkR-12" vertex="1">
                    <mxGeometry x="30" width="150" height="30" as="geometry"/>
                </mxCell>
                <mxCell id="re5dIPfYJAyWiZc1NxkR-37" value="consents_event" style="shape=table;startSize=30;container=1;collapsible=1;childLayout=tableLayout;fixedRows=1;rowLines=0;fontStyle=1;align=center;resizeLast=1;" parent="1" vertex="1">
                    <mxGeometry x="470" y="1080" width="180" height="130" as="geometry"/>
                </mxCell>
                <mxCell id="re5dIPfYJAyWiZc1NxkR-38" value="" style="shape=partialRectangle;collapsible=0;dropTarget=0;pointerEvents=0;fillColor=none;top=0;left=0;bottom=1;right=0;points=[[0,0.5],[1,0.5]];portConstraint=eastwest;" parent="re5dIPfYJAyWiZc1NxkR-37" vertex="1">
                    <mxGeometry y="30" width="180" height="30" as="geometry"/>
                </mxCell>
                <mxCell id="re5dIPfYJAyWiZc1NxkR-39" value="PK" style="shape=partialRectangle;connectable=0;fillColor=none;top=0;left=0;bottom=0;right=0;fontStyle=1;overflow=hidden;" parent="re5dIPfYJAyWiZc1NxkR-38" vertex="1">
                    <mxGeometry width="30" height="30" as="geometry"/>
                </mxCell>
                <mxCell id="re5dIPfYJAyWiZc1NxkR-40" value="EventID" style="shape=partialRectangle;connectable=0;fillColor=none;top=0;left=0;bottom=0;right=0;align=left;spacingLeft=6;fontStyle=5;overflow=hidden;" parent="re5dIPfYJAyWiZc1NxkR-38" vertex="1">
                    <mxGeometry x="30" width="150" height="30" as="geometry"/>
                </mxCell>
                <mxCell id="re5dIPfYJAyWiZc1NxkR-47" value="" style="shape=partialRectangle;collapsible=0;dropTarget=0;pointerEvents=0;fillColor=none;top=0;left=0;bottom=0;right=0;points=[[0,0.5],[1,0.5]];portConstraint=eastwest;" parent="re5dIPfYJAyWiZc1NxkR-37" vertex="1">
                    <mxGeometry y="60" width="180" height="20" as="geometry"/>
                </mxCell>
                <mxCell id="re5dIPfYJAyWiZc1NxkR-48" value="FK" style="shape=partialRectangle;connectable=0;fillColor=none;top=0;left=0;bottom=0;right=0;editable=1;overflow=hidden;fontStyle=1" parent="re5dIPfYJAyWiZc1NxkR-47" vertex="1">
                    <mxGeometry width="30" height="20" as="geometry"/>
                </mxCell>
                <mxCell id="re5dIPfYJAyWiZc1NxkR-49" value="UserID" style="shape=partialRectangle;connectable=0;fillColor=none;top=0;left=0;bottom=0;right=0;align=left;spacingLeft=6;overflow=hidden;fontStyle=1" parent="re5dIPfYJAyWiZc1NxkR-47" vertex="1">
                    <mxGeometry x="30" width="150" height="20" as="geometry"/>
                </mxCell>
                <mxCell id="re5dIPfYJAyWiZc1NxkR-41" value="" style="shape=partialRectangle;collapsible=0;dropTarget=0;pointerEvents=0;fillColor=none;top=0;left=0;bottom=0;right=0;points=[[0,0.5],[1,0.5]];portConstraint=eastwest;" parent="re5dIPfYJAyWiZc1NxkR-37" vertex="1">
                    <mxGeometry y="80" width="180" height="20" as="geometry"/>
                </mxCell>
                <mxCell id="re5dIPfYJAyWiZc1NxkR-42" value="FK" style="shape=partialRectangle;connectable=0;fillColor=none;top=0;left=0;bottom=0;right=0;editable=1;overflow=hidden;fontStyle=1" parent="re5dIPfYJAyWiZc1NxkR-41" vertex="1">
                    <mxGeometry width="30" height="20" as="geometry"/>
                </mxCell>
                <mxCell id="re5dIPfYJAyWiZc1NxkR-43" value="ChangeID" style="shape=partialRectangle;connectable=0;fillColor=none;top=0;left=0;bottom=0;right=0;align=left;spacingLeft=6;overflow=hidden;fontStyle=1" parent="re5dIPfYJAyWiZc1NxkR-41" vertex="1">
                    <mxGeometry x="30" width="150" height="20" as="geometry"/>
                </mxCell>
                <mxCell id="re5dIPfYJAyWiZc1NxkR-44" value="" style="shape=partialRectangle;collapsible=0;dropTarget=0;pointerEvents=0;fillColor=none;top=0;left=0;bottom=0;right=0;points=[[0,0.5],[1,0.5]];portConstraint=eastwest;" parent="re5dIPfYJAyWiZc1NxkR-37" vertex="1">
                    <mxGeometry y="100" width="180" height="30" as="geometry"/>
                </mxCell>
                <mxCell id="re5dIPfYJAyWiZc1NxkR-45" value="" style="shape=partialRectangle;connectable=0;fillColor=none;top=0;left=0;bottom=0;right=0;editable=1;overflow=hidden;" parent="re5dIPfYJAyWiZc1NxkR-44" vertex="1">
                    <mxGeometry width="30" height="30" as="geometry"/>
                </mxCell>
                <mxCell id="re5dIPfYJAyWiZc1NxkR-46" value="Timestamp" style="shape=partialRectangle;connectable=0;fillColor=none;top=0;left=0;bottom=0;right=0;align=left;spacingLeft=6;overflow=hidden;fontStyle=1" parent="re5dIPfYJAyWiZc1NxkR-44" vertex="1">
                    <mxGeometry x="30" width="150" height="30" as="geometry"/>
                </mxCell>
                <mxCell id="re5dIPfYJAyWiZc1NxkR-50" value="" style="edgeStyle=entityRelationEdgeStyle;fontSize=12;html=1;endArrow=ERoneToMany;exitX=1;exitY=0.5;exitDx=0;exitDy=0;entryX=0;entryY=0.5;entryDx=0;entryDy=0;" parent="1" source="re5dIPfYJAyWiZc1NxkR-3" target="re5dIPfYJAyWiZc1NxkR-47" edge="1">
                    <mxGeometry width="100" height="100" relative="1" as="geometry">
                        <mxPoint x="210" y="998.8199999999999" as="sourcePoint"/>
                        <mxPoint x="325" y="998.8199999999999" as="targetPoint"/>
                    </mxGeometry>
                </mxCell>
                <mxCell id="re5dIPfYJAyWiZc1NxkR-56" value="&#10;consents_change" style="shape=table;startSize=30;container=1;collapsible=1;childLayout=tableLayout;fixedRows=1;rowLines=0;fontStyle=1;align=center;resizeLast=1;" parent="1" vertex="1">
                    <mxGeometry x="660" y="1230" width="140" height="100" as="geometry"/>
                </mxCell>
                <mxCell id="re5dIPfYJAyWiZc1NxkR-57" value="" style="shape=partialRectangle;collapsible=0;dropTarget=0;pointerEvents=0;fillColor=none;top=0;left=0;bottom=1;right=0;points=[[0,0.5],[1,0.5]];portConstraint=eastwest;" parent="re5dIPfYJAyWiZc1NxkR-56" vertex="1">
                    <mxGeometry y="30" width="140" height="30" as="geometry"/>
                </mxCell>
                <mxCell id="re5dIPfYJAyWiZc1NxkR-58" value="PK" style="shape=partialRectangle;connectable=0;fillColor=none;top=0;left=0;bottom=0;right=0;fontStyle=1;overflow=hidden;" parent="re5dIPfYJAyWiZc1NxkR-57" vertex="1">
                    <mxGeometry width="30" height="30" as="geometry"/>
                </mxCell>
                <mxCell id="re5dIPfYJAyWiZc1NxkR-59" value="ChangeID" style="shape=partialRectangle;connectable=0;fillColor=none;top=0;left=0;bottom=0;right=0;align=left;spacingLeft=6;fontStyle=5;overflow=hidden;" parent="re5dIPfYJAyWiZc1NxkR-57" vertex="1">
                    <mxGeometry x="30" width="110" height="30" as="geometry"/>
                </mxCell>
                <mxCell id="re5dIPfYJAyWiZc1NxkR-60" value="" style="shape=partialRectangle;collapsible=0;dropTarget=0;pointerEvents=0;fillColor=none;top=0;left=0;bottom=0;right=0;points=[[0,0.5],[1,0.5]];portConstraint=eastwest;" parent="re5dIPfYJAyWiZc1NxkR-56" vertex="1">
                    <mxGeometry y="60" width="140" height="20" as="geometry"/>
                </mxCell>
                <mxCell id="re5dIPfYJAyWiZc1NxkR-61" value="FK" style="shape=partialRectangle;connectable=0;fillColor=none;top=0;left=0;bottom=0;right=0;editable=1;overflow=hidden;fontStyle=1" parent="re5dIPfYJAyWiZc1NxkR-60" vertex="1">
                    <mxGeometry width="30" height="20" as="geometry"/>
                </mxCell>
                <mxCell id="re5dIPfYJAyWiZc1NxkR-62" value="Description" style="shape=partialRectangle;connectable=0;fillColor=none;top=0;left=0;bottom=0;right=0;align=left;spacingLeft=6;overflow=hidden;fontStyle=1" parent="re5dIPfYJAyWiZc1NxkR-60" vertex="1">
                    <mxGeometry x="30" width="110" height="20" as="geometry"/>
                </mxCell>
                <mxCell id="re5dIPfYJAyWiZc1NxkR-66" value="" style="shape=partialRectangle;collapsible=0;dropTarget=0;pointerEvents=0;fillColor=none;top=0;left=0;bottom=0;right=0;points=[[0,0.5],[1,0.5]];portConstraint=eastwest;" parent="re5dIPfYJAyWiZc1NxkR-56" vertex="1">
                    <mxGeometry y="80" width="140" height="20" as="geometry"/>
                </mxCell>
                <mxCell id="re5dIPfYJAyWiZc1NxkR-67" value="" style="shape=partialRectangle;connectable=0;fillColor=none;top=0;left=0;bottom=0;right=0;editable=1;overflow=hidden;" parent="re5dIPfYJAyWiZc1NxkR-66" vertex="1">
                    <mxGeometry width="30" height="20" as="geometry"/>
                </mxCell>
                <mxCell id="re5dIPfYJAyWiZc1NxkR-68" value="" style="shape=partialRectangle;connectable=0;fillColor=none;top=0;left=0;bottom=0;right=0;align=left;spacingLeft=6;overflow=hidden;fontStyle=1" parent="re5dIPfYJAyWiZc1NxkR-66" vertex="1">
                    <mxGeometry x="30" width="110" height="20" as="geometry"/>
                </mxCell>
                <mxCell id="re5dIPfYJAyWiZc1NxkR-70" value="" style="edgeStyle=entityRelationEdgeStyle;fontSize=12;html=1;endArrow=ERmandOne;startArrow=ERmandOne;entryX=1;entryY=0.5;entryDx=0;entryDy=0;exitX=0;exitY=0.5;exitDx=0;exitDy=0;" parent="1" source="re5dIPfYJAyWiZc1NxkR-57" target="re5dIPfYJAyWiZc1NxkR-41" edge="1">
                    <mxGeometry width="100" height="100" relative="1" as="geometry">
                        <mxPoint x="340" y="1440" as="sourcePoint"/>
                        <mxPoint x="440" y="1340" as="targetPoint"/>
                    </mxGeometry>
                </mxCell>
            </root>
        </mxGraphModel>
    </diagram>
    <diagram id="kCwbmLZaCl3Cn40CNbpe" name="domain map">
        <mxGraphModel dx="939" dy="567" grid="1" gridSize="10" guides="1" tooltips="1" connect="1" arrows="1" fold="1" page="1" pageScale="1" pageWidth="850" pageHeight="1100" math="0" shadow="0">
            <root>
                <mxCell id="76KRYQBVPDD-pzwa8rsf-0"/>
                <mxCell id="76KRYQBVPDD-pzwa8rsf-1" parent="76KRYQBVPDD-pzwa8rsf-0"/>
                <mxCell id="5NnBznmPaH7kEeOWmvt0-2" value="" style="whiteSpace=wrap;html=1;" parent="76KRYQBVPDD-pzwa8rsf-1" vertex="1">
                    <mxGeometry x="40" y="40" width="390" height="190" as="geometry"/>
                </mxCell>
                <mxCell id="8RFdpEoqtDh46P4L1VyP-10" value="" style="whiteSpace=wrap;html=1;" parent="76KRYQBVPDD-pzwa8rsf-1" vertex="1">
                    <mxGeometry x="50" y="80" width="350" height="130" as="geometry"/>
                </mxCell>
                <mxCell id="8RFdpEoqtDh46P4L1VyP-1" value="Preference Center" style="text;html=1;strokeColor=none;fillColor=none;align=center;verticalAlign=middle;whiteSpace=wrap;rounded=0;" parent="76KRYQBVPDD-pzwa8rsf-1" vertex="1">
                    <mxGeometry x="40" y="50" width="110" height="20" as="geometry"/>
                </mxCell>
                <mxCell id="8RFdpEoqtDh46P4L1VyP-4" value="Events" style="ellipse;whiteSpace=wrap;html=1;" parent="76KRYQBVPDD-pzwa8rsf-1" vertex="1">
                    <mxGeometry x="240" y="110" width="140" height="70" as="geometry"/>
                </mxCell>
                <mxCell id="8RFdpEoqtDh46P4L1VyP-7" value="Users" style="ellipse;whiteSpace=wrap;html=1;" parent="76KRYQBVPDD-pzwa8rsf-1" vertex="1">
                    <mxGeometry x="70" y="110" width="140" height="70" as="geometry"/>
                </mxCell>
                <mxCell id="8RFdpEoqtDh46P4L1VyP-11" value="Consents" style="text;html=1;strokeColor=none;fillColor=none;align=center;verticalAlign=middle;whiteSpace=wrap;rounded=0;" parent="76KRYQBVPDD-pzwa8rsf-1" vertex="1">
                    <mxGeometry x="60" y="80" width="40" height="20" as="geometry"/>
                </mxCell>
            </root>
        </mxGraphModel>
    </diagram>
    <diagram id="APiz0esQylrMikMEwblo" name="domain model">
        <mxGraphModel dx="939" dy="567" grid="1" gridSize="10" guides="1" tooltips="1" connect="1" arrows="1" fold="1" page="1" pageScale="1" pageWidth="850" pageHeight="1100" math="0" shadow="0">
            <root>
                <mxCell id="nAuskc_3_RWuf8IGMNdX-0"/>
                <mxCell id="nAuskc_3_RWuf8IGMNdX-1" parent="nAuskc_3_RWuf8IGMNdX-0"/>
                <mxCell id="fwE1cjW3lq4HKiFym-ZO-0" value="User" style="ellipse;whiteSpace=wrap;html=1;" parent="nAuskc_3_RWuf8IGMNdX-1" vertex="1">
                    <mxGeometry x="180" y="110" width="140" height="70" as="geometry"/>
                </mxCell>
                <mxCell id="Hb8PYAyl3JmbYG5_Cz-d-0" value="Event" style="ellipse;whiteSpace=wrap;html=1;" parent="nAuskc_3_RWuf8IGMNdX-1" vertex="1">
                    <mxGeometry x="450" y="110" width="140" height="70" as="geometry"/>
                </mxCell>
                <mxCell id="Hb8PYAyl3JmbYG5_Cz-d-1" value="" style="endArrow=classic;html=1;exitX=0.5;exitY=0;exitDx=0;exitDy=0;" parent="nAuskc_3_RWuf8IGMNdX-1" source="fwE1cjW3lq4HKiFym-ZO-0" edge="1">
                    <mxGeometry width="50" height="50" relative="1" as="geometry">
                        <mxPoint x="250" y="210" as="sourcePoint"/>
                        <mxPoint x="500" y="110" as="targetPoint"/>
                    </mxGeometry>
                </mxCell>
                <mxCell id="Hb8PYAyl3JmbYG5_Cz-d-2" value="Can have many" style="text;html=1;align=center;verticalAlign=middle;resizable=0;points=[];autosize=1;" parent="nAuskc_3_RWuf8IGMNdX-1" vertex="1">
                    <mxGeometry x="330" y="90" width="100" height="20" as="geometry"/>
                </mxCell>
                <mxCell id="Hb8PYAyl3JmbYG5_Cz-d-3" value="" style="endArrow=classic;html=1;exitX=0;exitY=0.5;exitDx=0;exitDy=0;" parent="nAuskc_3_RWuf8IGMNdX-1" source="Hb8PYAyl3JmbYG5_Cz-d-0" target="fwE1cjW3lq4HKiFym-ZO-0" edge="1">
                    <mxGeometry width="50" height="50" relative="1" as="geometry">
                        <mxPoint x="480" y="280" as="sourcePoint"/>
                        <mxPoint x="730" y="280" as="targetPoint"/>
                    </mxGeometry>
                </mxCell>
                <mxCell id="Hb8PYAyl3JmbYG5_Cz-d-4" value="Can only have one" style="text;html=1;align=center;verticalAlign=middle;resizable=0;points=[];autosize=1;" parent="nAuskc_3_RWuf8IGMNdX-1" vertex="1">
                    <mxGeometry x="330" y="120" width="120" height="20" as="geometry"/>
                </mxCell>
                <mxCell id="Hb8PYAyl3JmbYG5_Cz-d-5" value="Consent" style="ellipse;whiteSpace=wrap;html=1;" parent="nAuskc_3_RWuf8IGMNdX-1" vertex="1">
                    <mxGeometry x="270" y="240" width="140" height="70" as="geometry"/>
                </mxCell>
                <mxCell id="Hb8PYAyl3JmbYG5_Cz-d-6" value="" style="endArrow=classic;html=1;exitX=0.5;exitY=1;exitDx=0;exitDy=0;" parent="nAuskc_3_RWuf8IGMNdX-1" source="fwE1cjW3lq4HKiFym-ZO-0" target="Hb8PYAyl3JmbYG5_Cz-d-5" edge="1">
                    <mxGeometry width="50" height="50" relative="1" as="geometry">
                        <mxPoint x="460" y="229" as="sourcePoint"/>
                        <mxPoint x="330" y="229" as="targetPoint"/>
                    </mxGeometry>
                </mxCell>
                <mxCell id="Hb8PYAyl3JmbYG5_Cz-d-7" value="Has" style="text;html=1;align=center;verticalAlign=middle;resizable=0;points=[];autosize=1;" parent="nAuskc_3_RWuf8IGMNdX-1" vertex="1">
                    <mxGeometry x="285" y="200" width="40" height="20" as="geometry"/>
                </mxCell>
                <mxCell id="Hb8PYAyl3JmbYG5_Cz-d-9" value="Email" style="ellipse;whiteSpace=wrap;html=1;" parent="nAuskc_3_RWuf8IGMNdX-1" vertex="1">
                    <mxGeometry x="50" y="250" width="140" height="70" as="geometry"/>
                </mxCell>
                <mxCell id="Hb8PYAyl3JmbYG5_Cz-d-10" value="" style="endArrow=classic;html=1;exitX=0;exitY=1;exitDx=0;exitDy=0;entryX=0.671;entryY=0.029;entryDx=0;entryDy=0;entryPerimeter=0;" parent="nAuskc_3_RWuf8IGMNdX-1" source="fwE1cjW3lq4HKiFym-ZO-0" target="Hb8PYAyl3JmbYG5_Cz-d-9" edge="1">
                    <mxGeometry width="50" height="50" relative="1" as="geometry">
                        <mxPoint x="250" y="180" as="sourcePoint"/>
                        <mxPoint x="310.03395586826844" y="243.36917563872782" as="targetPoint"/>
                    </mxGeometry>
                </mxCell>
                <mxCell id="Hb8PYAyl3JmbYG5_Cz-d-11" value="Is identified by" style="text;html=1;align=center;verticalAlign=middle;resizable=0;points=[];autosize=1;" parent="nAuskc_3_RWuf8IGMNdX-1" vertex="1">
                    <mxGeometry x="90" y="190" width="90" height="20" as="geometry"/>
                </mxCell>
                <mxCell id="te766Op5KwXC2-fIq-Cm-0" value="Change" style="ellipse;whiteSpace=wrap;html=1;" parent="nAuskc_3_RWuf8IGMNdX-1" vertex="1">
                    <mxGeometry x="500" y="290" width="140" height="70" as="geometry"/>
                </mxCell>
                <mxCell id="te766Op5KwXC2-fIq-Cm-1" value="" style="endArrow=classic;html=1;exitX=0.5;exitY=1;exitDx=0;exitDy=0;entryX=0.5;entryY=0;entryDx=0;entryDy=0;" parent="nAuskc_3_RWuf8IGMNdX-1" source="Hb8PYAyl3JmbYG5_Cz-d-0" target="te766Op5KwXC2-fIq-Cm-0" edge="1">
                    <mxGeometry width="50" height="50" relative="1" as="geometry">
                        <mxPoint x="480" y="209" as="sourcePoint"/>
                        <mxPoint x="350" y="209" as="targetPoint"/>
                    </mxGeometry>
                </mxCell>
                <mxCell id="te766Op5KwXC2-fIq-Cm-2" value="Can only have one" style="text;html=1;align=center;verticalAlign=middle;resizable=0;points=[];autosize=1;" parent="nAuskc_3_RWuf8IGMNdX-1" vertex="1">
                    <mxGeometry x="540" y="220" width="120" height="20" as="geometry"/>
                </mxCell>
                <mxCell id="te766Op5KwXC2-fIq-Cm-3" value="smsEnabled" style="ellipse;whiteSpace=wrap;html=1;" parent="nAuskc_3_RWuf8IGMNdX-1" vertex="1">
                    <mxGeometry x="180" y="350" width="140" height="70" as="geometry"/>
                </mxCell>
                <mxCell id="te766Op5KwXC2-fIq-Cm-4" value="emailEnabled" style="ellipse;whiteSpace=wrap;html=1;" parent="nAuskc_3_RWuf8IGMNdX-1" vertex="1">
                    <mxGeometry x="330" y="350" width="140" height="70" as="geometry"/>
                </mxCell>
                <mxCell id="te766Op5KwXC2-fIq-Cm-5" value="" style="endArrow=classic;html=1;exitX=0.5;exitY=1;exitDx=0;exitDy=0;" parent="nAuskc_3_RWuf8IGMNdX-1" target="te766Op5KwXC2-fIq-Cm-3" edge="1">
                    <mxGeometry width="50" height="50" relative="1" as="geometry">
                        <mxPoint x="340" y="310" as="sourcePoint"/>
                        <mxPoint x="400.0339558682624" y="373.36917563872134" as="targetPoint"/>
                    </mxGeometry>
                </mxCell>
                <mxCell id="te766Op5KwXC2-fIq-Cm-6" value="" style="endArrow=classic;html=1;exitX=0.5;exitY=1;exitDx=0;exitDy=0;" parent="nAuskc_3_RWuf8IGMNdX-1" target="te766Op5KwXC2-fIq-Cm-4" edge="1">
                    <mxGeometry width="50" height="50" relative="1" as="geometry">
                        <mxPoint x="350" y="310" as="sourcePoint"/>
                        <mxPoint x="260" y="350" as="targetPoint"/>
                    </mxGeometry>
                </mxCell>
            </root>
        </mxGraphModel>
    </diagram>
    <diagram id="fHbTJtwe-bb18X2m6nMT" name="systems architecture">
        <mxGraphModel dx="939" dy="567" grid="1" gridSize="10" guides="1" tooltips="1" connect="1" arrows="1" fold="1" page="1" pageScale="1" pageWidth="850" pageHeight="1100" math="0" shadow="0">
            <root>
                <mxCell id="GuUAo81yFZW9joUuAZIl-0"/>
                <mxCell id="GuUAo81yFZW9joUuAZIl-1" parent="GuUAo81yFZW9joUuAZIl-0"/>
                <mxCell id="GuUAo81yFZW9joUuAZIl-10" value="" style="rounded=0;whiteSpace=wrap;html=1;" parent="GuUAo81yFZW9joUuAZIl-1" vertex="1">
                    <mxGeometry x="60" y="65" width="240" height="270" as="geometry"/>
                </mxCell>
                <mxCell id="GuUAo81yFZW9joUuAZIl-2" value="Users" style="rounded=0;whiteSpace=wrap;html=1;" parent="GuUAo81yFZW9joUuAZIl-1" vertex="1">
                    <mxGeometry x="120" y="130" width="120" height="60" as="geometry"/>
                </mxCell>
                <mxCell id="GuUAo81yFZW9joUuAZIl-3" value="" style="shape=cylinder3;whiteSpace=wrap;html=1;boundedLbl=1;backgroundOutline=1;size=15;" parent="GuUAo81yFZW9joUuAZIl-1" vertex="1">
                    <mxGeometry x="310" y="60" width="160" height="275" as="geometry"/>
                </mxCell>
                <mxCell id="GuUAo81yFZW9joUuAZIl-5" value="" style="endArrow=classic;html=1;" parent="GuUAo81yFZW9joUuAZIl-1" edge="1">
                    <mxGeometry width="50" height="50" relative="1" as="geometry">
                        <mxPoint x="240" y="145" as="sourcePoint"/>
                        <mxPoint x="330" y="145" as="targetPoint"/>
                        <Array as="points">
                            <mxPoint x="290" y="145"/>
                        </Array>
                    </mxGeometry>
                </mxCell>
                <mxCell id="GuUAo81yFZW9joUuAZIl-6" value="" style="endArrow=classic;html=1;" parent="GuUAo81yFZW9joUuAZIl-1" edge="1">
                    <mxGeometry width="50" height="50" relative="1" as="geometry">
                        <mxPoint x="240" y="155" as="sourcePoint"/>
                        <mxPoint x="330" y="155" as="targetPoint"/>
                        <Array as="points">
                            <mxPoint x="290" y="155"/>
                        </Array>
                    </mxGeometry>
                </mxCell>
                <mxCell id="GuUAo81yFZW9joUuAZIl-7" value="" style="endArrow=classic;html=1;" parent="GuUAo81yFZW9joUuAZIl-1" edge="1">
                    <mxGeometry width="50" height="50" relative="1" as="geometry">
                        <mxPoint x="240" y="164.5" as="sourcePoint"/>
                        <mxPoint x="330" y="164.5" as="targetPoint"/>
                        <Array as="points">
                            <mxPoint x="290" y="164.5"/>
                        </Array>
                    </mxGeometry>
                </mxCell>
                <mxCell id="GuUAo81yFZW9joUuAZIl-8" value="" style="endArrow=classic;html=1;" parent="GuUAo81yFZW9joUuAZIl-1" edge="1">
                    <mxGeometry width="50" height="50" relative="1" as="geometry">
                        <mxPoint x="240" y="175" as="sourcePoint"/>
                        <mxPoint x="330" y="175" as="targetPoint"/>
                        <Array as="points">
                            <mxPoint x="290" y="175"/>
                        </Array>
                    </mxGeometry>
                </mxCell>
                <mxCell id="GuUAo81yFZW9joUuAZIl-14" value="Events" style="rounded=0;whiteSpace=wrap;html=1;" parent="GuUAo81yFZW9joUuAZIl-1" vertex="1">
                    <mxGeometry x="120" y="225" width="120" height="60" as="geometry"/>
                </mxCell>
                <mxCell id="GuUAo81yFZW9joUuAZIl-15" value="User Table" style="rounded=0;whiteSpace=wrap;html=1;" parent="GuUAo81yFZW9joUuAZIl-1" vertex="1">
                    <mxGeometry x="330" y="140" width="60" height="50" as="geometry"/>
                </mxCell>
                <mxCell id="GuUAo81yFZW9joUuAZIl-16" value="Change Table" style="rounded=0;whiteSpace=wrap;html=1;" parent="GuUAo81yFZW9joUuAZIl-1" vertex="1">
                    <mxGeometry x="400" y="185" width="60" height="50" as="geometry"/>
                </mxCell>
                <mxCell id="GuUAo81yFZW9joUuAZIl-17" value="Event Table" style="rounded=0;whiteSpace=wrap;html=1;" parent="GuUAo81yFZW9joUuAZIl-1" vertex="1">
                    <mxGeometry x="330" y="225" width="60" height="50" as="geometry"/>
                </mxCell>
                <mxCell id="GuUAo81yFZW9joUuAZIl-22" value="Nestjs" style="text;html=1;align=center;verticalAlign=middle;resizable=0;points=[];autosize=1;" parent="GuUAo81yFZW9joUuAZIl-1" vertex="1">
                    <mxGeometry x="60" y="75" width="50" height="20" as="geometry"/>
                </mxCell>
                <mxCell id="GuUAo81yFZW9joUuAZIl-23" value="" style="endArrow=classic;html=1;" parent="GuUAo81yFZW9joUuAZIl-1" edge="1">
                    <mxGeometry width="50" height="50" relative="1" as="geometry">
                        <mxPoint x="240" y="235" as="sourcePoint"/>
                        <mxPoint x="330" y="235" as="targetPoint"/>
                        <Array as="points">
                            <mxPoint x="290" y="235"/>
                        </Array>
                    </mxGeometry>
                </mxCell>
                <mxCell id="GuUAo81yFZW9joUuAZIl-24" value="" style="endArrow=classic;html=1;" parent="GuUAo81yFZW9joUuAZIl-1" edge="1">
                    <mxGeometry width="50" height="50" relative="1" as="geometry">
                        <mxPoint x="240" y="245" as="sourcePoint"/>
                        <mxPoint x="330" y="245" as="targetPoint"/>
                        <Array as="points">
                            <mxPoint x="290" y="245"/>
                        </Array>
                    </mxGeometry>
                </mxCell>
                <mxCell id="GuUAo81yFZW9joUuAZIl-25" value="" style="endArrow=classic;html=1;" parent="GuUAo81yFZW9joUuAZIl-1" edge="1">
                    <mxGeometry width="50" height="50" relative="1" as="geometry">
                        <mxPoint x="240" y="255" as="sourcePoint"/>
                        <mxPoint x="330" y="255" as="targetPoint"/>
                        <Array as="points">
                            <mxPoint x="290" y="255"/>
                        </Array>
                    </mxGeometry>
                </mxCell>
                <mxCell id="GuUAo81yFZW9joUuAZIl-26" value="" style="endArrow=classic;html=1;" parent="GuUAo81yFZW9joUuAZIl-1" edge="1">
                    <mxGeometry width="50" height="50" relative="1" as="geometry">
                        <mxPoint x="240" y="265" as="sourcePoint"/>
                        <mxPoint x="330" y="265" as="targetPoint"/>
                        <Array as="points">
                            <mxPoint x="290" y="265"/>
                        </Array>
                    </mxGeometry>
                </mxCell>
                <mxCell id="GuUAo81yFZW9joUuAZIl-28" value="" style="endArrow=classic;html=1;exitX=0.5;exitY=1;exitDx=0;exitDy=0;entryX=0.5;entryY=0;entryDx=0;entryDy=0;" parent="GuUAo81yFZW9joUuAZIl-1" source="GuUAo81yFZW9joUuAZIl-15" target="GuUAo81yFZW9joUuAZIl-17" edge="1">
                    <mxGeometry width="50" height="50" relative="1" as="geometry">
                        <mxPoint x="-50" y="245" as="sourcePoint"/>
                        <mxPoint y="195" as="targetPoint"/>
                    </mxGeometry>
                </mxCell>
                <mxCell id="GuUAo81yFZW9joUuAZIl-29" value="" style="endArrow=none;html=1;exitX=1;exitY=0.5;exitDx=0;exitDy=0;entryX=0.5;entryY=1;entryDx=0;entryDy=0;" parent="GuUAo81yFZW9joUuAZIl-1" source="GuUAo81yFZW9joUuAZIl-17" target="GuUAo81yFZW9joUuAZIl-16" edge="1">
                    <mxGeometry width="50" height="50" relative="1" as="geometry">
                        <mxPoint x="390" y="290" as="sourcePoint"/>
                        <mxPoint x="440" y="240" as="targetPoint"/>
                        <Array as="points">
                            <mxPoint x="430" y="250"/>
                        </Array>
                    </mxGeometry>
                </mxCell>
                <mxCell id="GuUAo81yFZW9joUuAZIl-30" value="CRUD" style="text;html=1;strokeColor=none;fillColor=none;align=center;verticalAlign=middle;whiteSpace=wrap;rounded=0;" parent="GuUAo81yFZW9joUuAZIl-1" vertex="1">
                    <mxGeometry x="260" y="120" width="40" height="20" as="geometry"/>
                </mxCell>
                <mxCell id="GuUAo81yFZW9joUuAZIl-31" value="CRUD" style="text;html=1;strokeColor=none;fillColor=none;align=center;verticalAlign=middle;whiteSpace=wrap;rounded=0;" parent="GuUAo81yFZW9joUuAZIl-1" vertex="1">
                    <mxGeometry x="260" y="215" width="40" height="20" as="geometry"/>
                </mxCell>
                <mxCell id="GuUAo81yFZW9joUuAZIl-32" value="If first event for user's id emit event" style="text;html=1;strokeColor=none;fillColor=none;align=center;verticalAlign=middle;whiteSpace=wrap;rounded=0;" parent="GuUAo81yFZW9joUuAZIl-1" vertex="1">
                    <mxGeometry x="125" y="295" width="110" height="20" as="geometry"/>
                </mxCell>
                <mxCell id="GuUAo81yFZW9joUuAZIl-34" value="" style="endArrow=classic;html=1;exitX=0;exitY=0;exitDx=0;exitDy=0;entryX=0.5;entryY=0;entryDx=0;entryDy=0;" parent="GuUAo81yFZW9joUuAZIl-1" source="GuUAo81yFZW9joUuAZIl-32" target="GuUAo81yFZW9joUuAZIl-2" edge="1">
                    <mxGeometry width="50" height="50" relative="1" as="geometry">
                        <mxPoint x="-190" y="275" as="sourcePoint"/>
                        <mxPoint x="125" y="190" as="targetPoint"/>
                        <Array as="points">
                            <mxPoint x="90" y="295"/>
                            <mxPoint x="90" y="95"/>
                            <mxPoint x="180" y="95"/>
                        </Array>
                    </mxGeometry>
                </mxCell>
                <mxCell id="GuUAo81yFZW9joUuAZIl-35" value="Listen for events" style="text;html=1;align=center;verticalAlign=middle;resizable=0;points=[];autosize=1;" parent="GuUAo81yFZW9joUuAZIl-1" vertex="1">
                    <mxGeometry x="140" y="100" width="100" height="20" as="geometry"/>
                </mxCell>
                <mxCell id="GuUAo81yFZW9joUuAZIl-36" value="Postgres" style="text;html=1;strokeColor=none;fillColor=none;align=center;verticalAlign=middle;whiteSpace=wrap;rounded=0;" parent="GuUAo81yFZW9joUuAZIl-1" vertex="1">
                    <mxGeometry x="320" y="95" width="40" height="20" as="geometry"/>
                </mxCell>
            </root>
        </mxGraphModel>
    </diagram>
    <diagram id="8SI-AtTzq4ZKc2jcryCa" name="final entity relationship diagram">
        <mxGraphModel dx="698" dy="567" grid="1" gridSize="10" guides="1" tooltips="1" connect="1" arrows="1" fold="1" page="1" pageScale="1" pageWidth="850" pageHeight="1100" math="0" shadow="0">
            <root>
                <mxCell id="4MjgheDQOaI1OoG6S3TW-0"/>
                <mxCell id="4MjgheDQOaI1OoG6S3TW-1" parent="4MjgheDQOaI1OoG6S3TW-0"/>
                <mxCell id="nLmcFKccY7bA5_6noInR-1" value="user" style="shape=table;startSize=30;container=1;collapsible=1;childLayout=tableLayout;fixedRows=1;rowLines=0;fontStyle=1;align=center;resizeLast=1;" vertex="1" parent="4MjgheDQOaI1OoG6S3TW-1">
                    <mxGeometry x="60" y="160" width="250" height="270" as="geometry"/>
                </mxCell>
                <mxCell id="nLmcFKccY7bA5_6noInR-2" value="" style="shape=partialRectangle;collapsible=0;dropTarget=0;pointerEvents=0;fillColor=none;top=0;left=0;bottom=1;right=0;points=[[0,0.5],[1,0.5]];portConstraint=eastwest;" vertex="1" parent="nLmcFKccY7bA5_6noInR-1">
                    <mxGeometry y="30" width="250" height="30" as="geometry"/>
                </mxCell>
                <mxCell id="nLmcFKccY7bA5_6noInR-3" value="PK" style="shape=partialRectangle;connectable=0;fillColor=none;top=0;left=0;bottom=0;right=0;fontStyle=1;overflow=hidden;" vertex="1" parent="nLmcFKccY7bA5_6noInR-2">
                    <mxGeometry width="30" height="30" as="geometry"/>
                </mxCell>
                <mxCell id="nLmcFKccY7bA5_6noInR-4" value="userID (uuid/string)" style="shape=partialRectangle;connectable=0;fillColor=none;top=0;left=0;bottom=0;right=0;align=left;spacingLeft=6;fontStyle=5;overflow=hidden;" vertex="1" parent="nLmcFKccY7bA5_6noInR-2">
                    <mxGeometry x="30" width="220" height="30" as="geometry"/>
                </mxCell>
                <mxCell id="nLmcFKccY7bA5_6noInR-5" value="" style="shape=partialRectangle;collapsible=0;dropTarget=0;pointerEvents=0;fillColor=none;top=0;left=0;bottom=0;right=0;points=[[0,0.5],[1,0.5]];portConstraint=eastwest;" vertex="1" parent="nLmcFKccY7bA5_6noInR-1">
                    <mxGeometry y="60" width="250" height="30" as="geometry"/>
                </mxCell>
                <mxCell id="nLmcFKccY7bA5_6noInR-6" value="SK" style="shape=partialRectangle;connectable=0;fillColor=none;top=0;left=0;bottom=0;right=0;editable=1;overflow=hidden;fontStyle=1" vertex="1" parent="nLmcFKccY7bA5_6noInR-5">
                    <mxGeometry width="30" height="30" as="geometry"/>
                </mxCell>
                <mxCell id="nLmcFKccY7bA5_6noInR-7" value="email (string)" style="shape=partialRectangle;connectable=0;fillColor=none;top=0;left=0;bottom=0;right=0;align=left;spacingLeft=6;overflow=hidden;fontStyle=1" vertex="1" parent="nLmcFKccY7bA5_6noInR-5">
                    <mxGeometry x="30" width="220" height="30" as="geometry"/>
                </mxCell>
                <mxCell id="nLmcFKccY7bA5_6noInR-8" value="" style="shape=partialRectangle;collapsible=0;dropTarget=0;pointerEvents=0;fillColor=none;top=0;left=0;bottom=0;right=0;points=[[0,0.5],[1,0.5]];portConstraint=eastwest;" vertex="1" parent="nLmcFKccY7bA5_6noInR-1">
                    <mxGeometry y="90" width="250" height="30" as="geometry"/>
                </mxCell>
                <mxCell id="nLmcFKccY7bA5_6noInR-9" value="" style="shape=partialRectangle;connectable=0;fillColor=none;top=0;left=0;bottom=0;right=0;editable=1;overflow=hidden;" vertex="1" parent="nLmcFKccY7bA5_6noInR-8">
                    <mxGeometry width="30" height="30" as="geometry"/>
                </mxCell>
                <mxCell id="nLmcFKccY7bA5_6noInR-10" value="previouslyGivenConsent (boolean)" style="shape=partialRectangle;connectable=0;fillColor=none;top=0;left=0;bottom=0;right=0;align=left;spacingLeft=6;overflow=hidden;fontStyle=1" vertex="1" parent="nLmcFKccY7bA5_6noInR-8">
                    <mxGeometry x="30" width="220" height="30" as="geometry"/>
                </mxCell>
                <mxCell id="nLmcFKccY7bA5_6noInR-37" value="" style="shape=partialRectangle;collapsible=0;dropTarget=0;pointerEvents=0;fillColor=none;top=0;left=0;bottom=0;right=0;points=[[0,0.5],[1,0.5]];portConstraint=eastwest;" vertex="1" parent="nLmcFKccY7bA5_6noInR-1">
                    <mxGeometry y="120" width="250" height="30" as="geometry"/>
                </mxCell>
                <mxCell id="nLmcFKccY7bA5_6noInR-38" value="" style="shape=partialRectangle;connectable=0;fillColor=none;top=0;left=0;bottom=0;right=0;editable=1;overflow=hidden;" vertex="1" parent="nLmcFKccY7bA5_6noInR-37">
                    <mxGeometry width="30" height="30" as="geometry"/>
                </mxCell>
                <mxCell id="nLmcFKccY7bA5_6noInR-39" value="smsNotificationEnabled (boolean)" style="shape=partialRectangle;connectable=0;fillColor=none;top=0;left=0;bottom=0;right=0;align=left;spacingLeft=6;overflow=hidden;fontStyle=1" vertex="1" parent="nLmcFKccY7bA5_6noInR-37">
                    <mxGeometry x="30" width="220" height="30" as="geometry"/>
                </mxCell>
                <mxCell id="nLmcFKccY7bA5_6noInR-40" value="" style="shape=partialRectangle;collapsible=0;dropTarget=0;pointerEvents=0;fillColor=none;top=0;left=0;bottom=0;right=0;points=[[0,0.5],[1,0.5]];portConstraint=eastwest;" vertex="1" parent="nLmcFKccY7bA5_6noInR-1">
                    <mxGeometry y="150" width="250" height="30" as="geometry"/>
                </mxCell>
                <mxCell id="nLmcFKccY7bA5_6noInR-41" value="" style="shape=partialRectangle;connectable=0;fillColor=none;top=0;left=0;bottom=0;right=0;editable=1;overflow=hidden;" vertex="1" parent="nLmcFKccY7bA5_6noInR-40">
                    <mxGeometry width="30" height="30" as="geometry"/>
                </mxCell>
                <mxCell id="nLmcFKccY7bA5_6noInR-42" value="previouslyGivenConsent (boolean)" style="shape=partialRectangle;connectable=0;fillColor=none;top=0;left=0;bottom=0;right=0;align=left;spacingLeft=6;overflow=hidden;fontStyle=1" vertex="1" parent="nLmcFKccY7bA5_6noInR-40">
                    <mxGeometry x="30" width="220" height="30" as="geometry"/>
                </mxCell>
                <mxCell id="nLmcFKccY7bA5_6noInR-11" value="" style="shape=partialRectangle;collapsible=0;dropTarget=0;pointerEvents=0;fillColor=none;top=0;left=0;bottom=0;right=0;points=[[0,0.5],[1,0.5]];portConstraint=eastwest;" vertex="1" parent="nLmcFKccY7bA5_6noInR-1">
                    <mxGeometry y="180" width="250" height="30" as="geometry"/>
                </mxCell>
                <mxCell id="nLmcFKccY7bA5_6noInR-12" value="" style="shape=partialRectangle;connectable=0;fillColor=none;top=0;left=0;bottom=0;right=0;editable=1;overflow=hidden;" vertex="1" parent="nLmcFKccY7bA5_6noInR-11">
                    <mxGeometry width="30" height="30" as="geometry"/>
                </mxCell>
                <mxCell id="nLmcFKccY7bA5_6noInR-13" value="EmailNotifications (boolean)" style="shape=partialRectangle;connectable=0;fillColor=none;top=0;left=0;bottom=0;right=0;align=left;spacingLeft=6;overflow=hidden;fontStyle=1" vertex="1" parent="nLmcFKccY7bA5_6noInR-11">
                    <mxGeometry x="30" width="220" height="30" as="geometry"/>
                </mxCell>
                <mxCell id="nLmcFKccY7bA5_6noInR-14" value="" style="shape=partialRectangle;collapsible=0;dropTarget=0;pointerEvents=0;fillColor=none;top=0;left=0;bottom=0;right=0;points=[[0,0.5],[1,0.5]];portConstraint=eastwest;" vertex="1" parent="nLmcFKccY7bA5_6noInR-1">
                    <mxGeometry y="210" width="250" height="30" as="geometry"/>
                </mxCell>
                <mxCell id="nLmcFKccY7bA5_6noInR-15" value="" style="shape=partialRectangle;connectable=0;fillColor=none;top=0;left=0;bottom=0;right=0;editable=1;overflow=hidden;" vertex="1" parent="nLmcFKccY7bA5_6noInR-14">
                    <mxGeometry width="30" height="30" as="geometry"/>
                </mxCell>
                <mxCell id="nLmcFKccY7bA5_6noInR-16" value="createdAt (date)" style="shape=partialRectangle;connectable=0;fillColor=none;top=0;left=0;bottom=0;right=0;align=left;spacingLeft=6;overflow=hidden;fontStyle=1" vertex="1" parent="nLmcFKccY7bA5_6noInR-14">
                    <mxGeometry x="30" width="220" height="30" as="geometry"/>
                </mxCell>
                <mxCell id="nLmcFKccY7bA5_6noInR-17" value="" style="shape=partialRectangle;collapsible=0;dropTarget=0;pointerEvents=0;fillColor=none;top=0;left=0;bottom=0;right=0;points=[[0,0.5],[1,0.5]];portConstraint=eastwest;" vertex="1" parent="nLmcFKccY7bA5_6noInR-1">
                    <mxGeometry y="240" width="250" height="30" as="geometry"/>
                </mxCell>
                <mxCell id="nLmcFKccY7bA5_6noInR-18" value="" style="shape=partialRectangle;connectable=0;fillColor=none;top=0;left=0;bottom=0;right=0;editable=1;overflow=hidden;" vertex="1" parent="nLmcFKccY7bA5_6noInR-17">
                    <mxGeometry width="30" height="30" as="geometry"/>
                </mxCell>
                <mxCell id="nLmcFKccY7bA5_6noInR-19" value="lastModifiedAt (date)" style="shape=partialRectangle;connectable=0;fillColor=none;top=0;left=0;bottom=0;right=0;align=left;spacingLeft=6;overflow=hidden;" vertex="1" parent="nLmcFKccY7bA5_6noInR-17">
                    <mxGeometry x="30" width="220" height="30" as="geometry"/>
                </mxCell>
                <mxCell id="nLmcFKccY7bA5_6noInR-20" value="event" style="shape=table;startSize=30;container=1;collapsible=1;childLayout=tableLayout;fixedRows=1;rowLines=0;fontStyle=1;align=center;resizeLast=1;" vertex="1" parent="4MjgheDQOaI1OoG6S3TW-1">
                    <mxGeometry x="425" y="160" width="210" height="150" as="geometry"/>
                </mxCell>
                <mxCell id="nLmcFKccY7bA5_6noInR-21" value="" style="shape=partialRectangle;collapsible=0;dropTarget=0;pointerEvents=0;fillColor=none;top=0;left=0;bottom=1;right=0;points=[[0,0.5],[1,0.5]];portConstraint=eastwest;" vertex="1" parent="nLmcFKccY7bA5_6noInR-20">
                    <mxGeometry y="30" width="210" height="30" as="geometry"/>
                </mxCell>
                <mxCell id="nLmcFKccY7bA5_6noInR-22" value="PK" style="shape=partialRectangle;connectable=0;fillColor=none;top=0;left=0;bottom=0;right=0;fontStyle=1;overflow=hidden;" vertex="1" parent="nLmcFKccY7bA5_6noInR-21">
                    <mxGeometry width="30" height="30" as="geometry"/>
                </mxCell>
                <mxCell id="nLmcFKccY7bA5_6noInR-23" value="eventID (uuid/string)" style="shape=partialRectangle;connectable=0;fillColor=none;top=0;left=0;bottom=0;right=0;align=left;spacingLeft=6;fontStyle=5;overflow=hidden;" vertex="1" parent="nLmcFKccY7bA5_6noInR-21">
                    <mxGeometry x="30" width="180" height="30" as="geometry"/>
                </mxCell>
                <mxCell id="nLmcFKccY7bA5_6noInR-24" value="" style="shape=partialRectangle;collapsible=0;dropTarget=0;pointerEvents=0;fillColor=none;top=0;left=0;bottom=0;right=0;points=[[0,0.5],[1,0.5]];portConstraint=eastwest;" vertex="1" parent="nLmcFKccY7bA5_6noInR-20">
                    <mxGeometry y="60" width="210" height="20" as="geometry"/>
                </mxCell>
                <mxCell id="nLmcFKccY7bA5_6noInR-25" value="FK" style="shape=partialRectangle;connectable=0;fillColor=none;top=0;left=0;bottom=0;right=0;editable=1;overflow=hidden;fontStyle=1" vertex="1" parent="nLmcFKccY7bA5_6noInR-24">
                    <mxGeometry width="30" height="20" as="geometry"/>
                </mxCell>
                <mxCell id="nLmcFKccY7bA5_6noInR-26" value="userID (string)" style="shape=partialRectangle;connectable=0;fillColor=none;top=0;left=0;bottom=0;right=0;align=left;spacingLeft=6;overflow=hidden;fontStyle=1" vertex="1" parent="nLmcFKccY7bA5_6noInR-24">
                    <mxGeometry x="30" width="180" height="20" as="geometry"/>
                </mxCell>
                <mxCell id="nLmcFKccY7bA5_6noInR-30" value="" style="shape=partialRectangle;collapsible=0;dropTarget=0;pointerEvents=0;fillColor=none;top=0;left=0;bottom=0;right=0;points=[[0,0.5],[1,0.5]];portConstraint=eastwest;" vertex="1" parent="nLmcFKccY7bA5_6noInR-20">
                    <mxGeometry y="80" width="210" height="30" as="geometry"/>
                </mxCell>
                <mxCell id="nLmcFKccY7bA5_6noInR-31" value="" style="shape=partialRectangle;connectable=0;fillColor=none;top=0;left=0;bottom=0;right=0;editable=1;overflow=hidden;" vertex="1" parent="nLmcFKccY7bA5_6noInR-30">
                    <mxGeometry width="30" height="30" as="geometry"/>
                </mxCell>
                <mxCell id="nLmcFKccY7bA5_6noInR-32" value="timestamp (Date)" style="shape=partialRectangle;connectable=0;fillColor=none;top=0;left=0;bottom=0;right=0;align=left;spacingLeft=6;overflow=hidden;fontStyle=1" vertex="1" parent="nLmcFKccY7bA5_6noInR-30">
                    <mxGeometry x="30" width="180" height="30" as="geometry"/>
                </mxCell>
                <mxCell id="nLmcFKccY7bA5_6noInR-27" value="" style="shape=partialRectangle;collapsible=0;dropTarget=0;pointerEvents=0;fillColor=none;top=0;left=0;bottom=0;right=0;points=[[0,0.5],[1,0.5]];portConstraint=eastwest;" vertex="1" parent="nLmcFKccY7bA5_6noInR-20">
                    <mxGeometry y="110" width="210" height="40" as="geometry"/>
                </mxCell>
                <mxCell id="nLmcFKccY7bA5_6noInR-28" value="" style="shape=partialRectangle;connectable=0;fillColor=none;top=0;left=0;bottom=0;right=0;editable=1;overflow=hidden;fontStyle=1" vertex="1" parent="nLmcFKccY7bA5_6noInR-27">
                    <mxGeometry width="30" height="40" as="geometry"/>
                </mxCell>
                <mxCell id="nLmcFKccY7bA5_6noInR-29" value="changeDescription (string)" style="shape=partialRectangle;connectable=0;fillColor=none;top=0;left=0;bottom=0;right=0;align=left;spacingLeft=6;overflow=hidden;fontStyle=1" vertex="1" parent="nLmcFKccY7bA5_6noInR-27">
                    <mxGeometry x="30" width="180" height="40" as="geometry"/>
                </mxCell>
                <mxCell id="nLmcFKccY7bA5_6noInR-33" value="" style="edgeStyle=entityRelationEdgeStyle;fontSize=12;html=1;endArrow=ERoneToMany;exitX=1;exitY=0.5;exitDx=0;exitDy=0;entryX=0;entryY=0.5;entryDx=0;entryDy=0;" edge="1" source="nLmcFKccY7bA5_6noInR-2" target="nLmcFKccY7bA5_6noInR-24" parent="4MjgheDQOaI1OoG6S3TW-1">
                    <mxGeometry width="100" height="100" relative="1" as="geometry">
                        <mxPoint x="80" y="78.81999999999994" as="sourcePoint"/>
                        <mxPoint x="195" y="78.81999999999994" as="targetPoint"/>
                    </mxGeometry>
                </mxCell>
            </root>
        </mxGraphModel>
    </diagram>
</mxfile>